<svg width="17" height="17" viewBox="0 0 17 17" fill="none" xmlns="http://www.w3.org/2000/svg">
<g id="1&#239;&#189;&#156;general/properly" clip-path="url(#clip0_1083_235)">
<path id="Union" d="M8.50004 0.708344C6.34864 0.708344 4.39976 1.58123 2.9905 2.99046C1.58127 4.39972 0.708374 6.34861 0.708374 8.50001C0.708374 10.6514 1.58126 12.6003 2.9905 14.0095C4.39975 15.4188 6.34864 16.2917 8.50004 16.2917C10.6514 16.2917 12.6003 15.4188 14.0096 14.0095C15.4188 12.6003 16.2917 10.6514 16.2917 8.50001C16.2917 6.34861 15.4188 4.39972 14.0096 2.99047C12.6003 1.58124 10.6514 0.708344 8.50004 0.708344Z" fill="#FF8010"/>
<path id="Vector (Stroke)" fill-rule="evenodd" clip-rule="evenodd" d="M13.0431 6.35058L7.83239 11.8218C7.6987 11.9622 7.51331 12.0417 7.31946 12.0417C7.1256 12.0417 6.94022 11.9622 6.80653 11.8218L3.95691 8.82974L4.98277 7.85273L7.31946 10.3063L12.0173 5.37357L13.0431 6.35058Z" fill="white"/>
</g>
<defs>
<clipPath id="clip0_1083_235">
<rect width="17" height="17" fill="white"/>
</clipPath>
</defs>
</svg>
