<?xml version="1.0" standalone="no"?><!DOCTYPE svg PUBLIC "-//W3C//DTD SVG 1.1//EN" "http://www.w3.org/Graphics/SVG/1.1/DTD/svg11.dtd"><svg t="1721285783860" class="icon" viewBox="0 0 1024 1024" version="1.1" xmlns="http://www.w3.org/2000/svg" p-id="3399" xmlns:xlink="http://www.w3.org/1999/xlink" width="16" height="16"><path d="M512 938.666667a425.322667 425.322667 0 0 0 301.696-124.970667A425.322667 425.322667 0 0 0 938.666667 512a425.344 425.344 0 0 0-124.970667-301.696A425.322667 425.322667 0 0 0 512 85.333333 425.344 425.344 0 0 0 210.304 210.304 425.344 425.344 0 0 0 85.333333 512a425.322667 425.322667 0 0 0 124.970667 301.696A425.344 425.344 0 0 0 512 938.666667z" fill="#EEF4FF" p-id="3400"></path><path d="M512 789.333333a53.333333 53.333333 0 1 0 0-106.666666 53.333333 53.333333 0 0 0 0 106.666666zM480 256v341.333333h64V256h-64z" fill="#2B6CFF" p-id="3401"></path><path d="M187.669333 187.669333A457.344 457.344 0 0 1 512 53.333333a457.344 457.344 0 0 1 324.330667 134.336A457.322667 457.322667 0 0 1 970.666667 512a457.322667 457.322667 0 0 1-134.336 324.330667A457.322667 457.322667 0 0 1 512 970.666667a457.322667 457.322667 0 0 1-324.330667-134.336A457.344 457.344 0 0 1 53.333333 512 457.344 457.344 0 0 1 187.669333 187.669333zM512 117.333333a393.344 393.344 0 0 0-279.082667 115.584A393.344 393.344 0 0 0 117.333333 512c0 108.992 44.138667 207.616 115.584 279.061333A393.344 393.344 0 0 0 512 906.666667c108.992 0 207.616-44.16 279.061333-115.605334A393.322667 393.322667 0 0 0 906.666667 512c0-108.992-44.16-207.616-115.605334-279.082667A393.322667 393.322667 0 0 0 512 117.333333z" fill="#2B6CFF" p-id="3402"></path></svg>