<?xml version="1.0" standalone="no"?><!DOCTYPE svg PUBLIC "-//W3C//DTD SVG 1.1//EN" "http://www.w3.org/Graphics/SVG/1.1/DTD/svg11.dtd"><svg t="1723623479364" class="icon" viewBox="0 0 1024 1024" version="1.1" xmlns="http://www.w3.org/2000/svg" p-id="3563" width="32" height="32" xmlns:xlink="http://www.w3.org/1999/xlink"><path d="M160 454.976c0-187.776 159.018667-337.472 352-337.472s352 149.696 352 337.472c0 131.712-88.170667 250.005333-169.258667 331.84a1105.450667 1105.450667 0 0 1-150.784 126.421333 658.688 658.688 0 0 1-13.568 9.173334l-0.810666 0.512-0.213334 0.149333-0.106666 0.064L512 896.170667l-17.258667 26.965333-0.106666-0.064-0.213334-0.149333-0.810666-0.533334a658.688 658.688 0 0 1-13.589334-9.173333 1105.450667 1105.450667 0 0 1-150.762666-126.421333C248.170667 705.002667 160 586.709333 160 454.997333zM512 309.504a160 160 0 1 0 0 320 160 160 0 0 0 0-320z" fill="#262626" p-id="3564"></path><path d="M494.741333 923.136L512 896.170667l17.258667 26.965333-17.258667 11.029333-17.258667-11.029333z" fill="#262626" p-id="3565"></path></svg>