<?xml version="1.0" standalone="no"?><!DOCTYPE svg PUBLIC "-//W3C//DTD SVG 1.1//EN" "http://www.w3.org/Graphics/SVG/1.1/DTD/svg11.dtd"><svg class="icon" width="32px" height="32.00px" viewBox="0 0 1024 1024" version="1.1" xmlns="http://www.w3.org/2000/svg"><path fill="#8a8a8a" d="M512 117.333333c-192.981333 0-352 149.696-352 337.450667 0 131.733333 88.170667 250.026667 169.258667 331.84a1105.450667 1105.450667 0 0 0 150.784 126.442667 673.130667 673.130667 0 0 0 13.568 9.152l0.810666 0.512 0.213334 0.149333 0.106666 0.064 17.258667 11.050667 17.258667-11.050667 0.106666-0.064 0.213334-0.149333 0.810666-0.512a673.130667 673.130667 0 0 0 13.589334-9.173334 1105.450667 1105.450667 0 0 0 150.762666-126.421333c81.088-81.834667 169.258667-200.106667 169.258667-331.84C864 267.029333 704.981333 117.333333 512 117.333333zM512 896a4854.229333 4854.229333 0 0 1-17.258667 26.944L512 896z m17.258667 26.944L512 896l17.258667 26.944z m13.333333-88.064c-12.16 9.28-22.592 16.810667-30.592 22.442667a1041.173333 1041.173333 0 0 1-137.258667-115.733334c-78.912-79.616-150.741333-181.973333-150.741333-286.805333C224 305.152 351.530667 181.333333 512 181.333333s288 123.818667 288 273.450667c0 104.853333-71.829333 207.189333-150.741333 286.805333a1041.173333 1041.173333 0 0 1-106.666667 93.290667zM512 309.333333c-85.696 0-160 64.298667-160 149.333334s74.304 149.333333 160 149.333333c85.696 0 160-64.298667 160-149.333333s-74.304-149.333333-160-149.333334z m-96 149.333334c0-44.565333 40.32-85.333333 96-85.333334 55.68 0 96 40.768 96 85.333334s-40.32 85.333333-96 85.333333c-55.68 0-96-40.768-96-85.333333z" /></svg>