<?xml version="1.0" standalone="no"?><!DOCTYPE svg PUBLIC "-//W3C//DTD SVG 1.1//EN" "http://www.w3.org/Graphics/SVG/1.1/DTD/svg11.dtd"><svg t="1709022174031" class="icon" viewBox="0 0 1024 1024" version="1.1" xmlns="http://www.w3.org/2000/svg" p-id="1702" width="48" height="48" xmlns:xlink="http://www.w3.org/1999/xlink"><path d="M512 42.666667A468.010667 468.010667 0 0 0 180.138667 180.138667 468.010667 468.010667 0 0 0 42.666667 512a467.989333 467.989333 0 0 0 137.472 331.861333A468.010667 468.010667 0 0 0 512 981.333333a468.010667 468.010667 0 0 0 331.861333-137.472A468.010667 468.010667 0 0 0 981.333333 512a468.010667 468.010667 0 0 0-137.472-331.861333A467.989333 467.989333 0 0 0 512 42.666667z" p-id="1703" data-spm-anchor-id="a313x.manage_type_myprojects.0.i0.36483a81aNCreH" class="selected" fill="#ff8010"></path><path d="M469.333333 256v341.333333h85.333334V256h-85.333334zM565.333333 736a53.333333 53.333333 0 1 1-106.666666 0 53.333333 53.333333 0 0 1 106.666666 0z" fill="#ffffff" p-id="1704"></path></svg>
