<?xml version="1.0" standalone="no"?><!DOCTYPE svg PUBLIC "-//W3C//DTD SVG 1.1//EN" "http://www.w3.org/Graphics/SVG/1.1/DTD/svg11.dtd"><svg class="icon" width="32px" height="32.00px" viewBox="0 0 1024 1024" version="1.1" xmlns="http://www.w3.org/2000/svg"><path d="M512 512m-512 0a512 512 0 1 0 1024 0 512 512 0 1 0-1024 0Z" fill="#EEF4FF" /><path d="M656.410256 236.307692a26.25641 26.25641 0 0 1 26.256411 26.256411v341.333333a26.25641 26.25641 0 0 1-26.256411 26.25641H367.589744a52.512821 52.512821 0 1 0 0 105.025641h341.333333V288.820513a26.25641 26.25641 0 0 1 52.51282 0v472.615384a26.25641 26.25641 0 0 1-26.25641 26.256411H367.589744a105.025641 105.025641 0 0 1-105.025641-105.025641V341.333333a105.025641 105.025641 0 0 1 105.025641-105.025641h288.820512z m-13.128205 420.102564a26.25641 26.25641 0 0 1 0 52.512821h-262.564102a26.25641 26.25641 0 0 1 0-52.512821h262.564102zM630.153846 288.820513H367.589744a52.512821 52.512821 0 0 0-52.512821 52.51282v250.354872A104.631795 104.631795 0 0 1 367.589744 577.641026h262.564102V288.820513z" fill="#2B6CFF" /></svg>