<?xml version="1.0" standalone="no"?><!DOCTYPE svg PUBLIC "-//W3C//DTD SVG 1.1//EN" "http://www.w3.org/Graphics/SVG/1.1/DTD/svg11.dtd"><svg t="1721285255393" class="icon" viewBox="0 0 1024 1024" version="1.1" xmlns="http://www.w3.org/2000/svg" p-id="3554" xmlns:xlink="http://www.w3.org/1999/xlink" width="16" height="16"><path d="M853.333333 128v597.333333H170.666667V128a42.666667 42.666667 0 0 1 42.666666-42.666667h597.333334a42.666667 42.666667 0 0 1 42.666666 42.666667z m0 618.666667H170.666667v149.333333a42.666667 42.666667 0 0 0 42.666666 42.666667h597.333334a42.666667 42.666667 0 0 0 42.666666-42.666667v-149.333333z" fill="#EEF4FF" p-id="3555"></path><path d="M810.666667 53.333333A74.666667 74.666667 0 0 1 885.333333 128v768a74.666667 74.666667 0 0 1-74.666666 74.666667H213.333333A74.666667 74.666667 0 0 1 138.666667 896V128A74.666667 74.666667 0 0 1 213.333333 53.333333h597.333334z m10.666666 725.333334h-618.666666V896a10.666667 10.666667 0 0 0 10.666666 10.666667h597.333334a10.666667 10.666667 0 0 0 10.666666-10.666667v-117.333333z m-10.666666-661.333334H213.333333a10.666667 10.666667 0 0 0-10.666666 10.666667v586.666667h618.666666V128a10.666667 10.666667 0 0 0-10.666666-10.666667zM588.8 234.666667c19.456 0 37.781333 4.821333 53.866667 13.333333L569.6 321.066667l48 48 73.066667-73.066667a115.2 115.2 0 0 1-155.733334 155.733333L368 618.666667 320 570.666667l166.933333-166.933334A115.2 115.2 0 0 1 588.8 234.666667z" fill="#2B6CFF" p-id="3556"></path></svg>