<?xml version="1.0" standalone="no"?><!DOCTYPE svg PUBLIC "-//W3C//DTD SVG 1.1//EN" "http://www.w3.org/Graphics/SVG/1.1/DTD/svg11.dtd"><svg t="1719572577871" class="icon" viewBox="0 0 1024 1024" version="1.1" xmlns="http://www.w3.org/2000/svg" p-id="3969" xmlns:xlink="http://www.w3.org/1999/xlink" width="32" height="32"><path d="M362.581333 163.968a42.666667 42.666667 0 0 1 37.312 21.952l52.181334 94.016a42.666667 42.666667 0 0 1 0.853333 39.786667l-50.282667 100.565333s14.592 74.901333 75.562667 135.893333c60.970667 60.970667 135.637333 75.306667 135.637333 75.306667l100.544-50.282667a42.666667 42.666667 0 0 1 39.808 0.853334l94.293334 52.437333A42.666667 42.666667 0 0 1 870.4 671.786667v108.224c0 55.125333-51.2 94.933333-103.424 77.312-107.264-36.202667-273.770667-105.109333-379.306667-210.645334-105.536-105.536-174.442667-272.021333-210.624-379.306666-17.621333-52.202667 22.186667-103.402667 77.290667-103.402667h108.224z" fill="#262626" p-id="3970"></path></svg>