<?xml version="1.0" standalone="no"?><!DOCTYPE svg PUBLIC "-//W3C//DTD SVG 1.1//EN" "http://www.w3.org/Graphics/SVG/1.1/DTD/svg11.dtd"><svg t="1736817877829" class="icon" viewBox="0 0 1024 1024" version="1.1" xmlns="http://www.w3.org/2000/svg" p-id="5783" xmlns:xlink="http://www.w3.org/1999/xlink" width="16" height="16"><path d="M442.304 155.349333V429.653333c0 17.365333-5.034667 33.216-15.104 47.509334a78.933333 78.933333 0 0 1-39.253333 29.952v333.802666c0 14.869333-5.312 27.648-16.149334 38.592-10.816 10.837333-23.466667 16.32-38.186666 16.32h-54.250667c-14.72 0-27.370667-5.376-38.186667-16.32-10.752-10.837333-16.170667-23.701333-16.170666-38.592V507.093333a78.933333 78.933333 0 0 1-39.232-29.952A80.277333 80.277333 0 0 1 170.666667 429.653333V155.349333c0-7.381333 2.666667-13.909333 8.085333-19.2 5.312-5.376 11.669333-8.149333 18.986667-8.149333 7.317333 0 13.781333 2.688 19.008 8.170667 5.333333 5.376 8.085333 11.904 8.085333 19.2v178.261333c0 7.402667 2.645333 13.909333 8.064 19.2 5.333333 5.376 11.690667 8.170667 18.986667 8.170667 7.338667 0 13.802667-2.709333 19.029333-8.170667 5.312-5.376 8.064-11.818667 8.064-19.2V155.349333c0-7.381333 2.666667-13.909333 8.085333-19.2 5.333333-5.376 11.690667-8.149333 18.986667-8.149333 7.317333 0 13.781333 2.688 19.008 8.170667 5.333333 5.376 8.085333 11.904 8.085333 19.2v178.261333c0 7.402667 2.645333 13.909333 8.064 19.2 5.333333 5.376 11.690667 8.170667 19.008 8.170667 7.317333 0 13.781333-2.709333 18.986667-8.170667 5.333333-5.376 8.106667-11.818667 8.106667-19.2V155.349333c0-7.381333 2.645333-13.909333 8.064-19.2 5.333333-5.376 11.690667-8.149333 18.986666-8.149333 7.338667 0 13.781333 2.688 19.008 8.170667 6.272 5.376 8.938667 11.690667 8.938667 19.2z m411.029333 0v685.738667c0 14.869333-5.333333 27.648-16.149333 38.592-10.730667 10.837333-23.466667 16.32-38.186667 16.32h-54.357333c-14.72 0-27.370667-5.376-38.186667-16.32a52.693333 52.693333 0 0 1-16.149333-38.592V621.525333h-94.72a12.864 12.864 0 0 1-9.514667-4.032 13.290667 13.290667 0 0 1-3.989333-9.6V265.109333c0-37.632 13.290667-70.08 39.808-96.853333C648.384 141.44 680.405333 128 717.76 128h108.501333c7.317333 0 13.76 2.688 18.986667 8.170667 5.418667 5.376 8.085333 11.690667 8.085333 19.2z" fill="#52C41A" p-id="5784"></path></svg>