<?xml version="1.0" standalone="no"?><!DOCTYPE svg PUBLIC "-//W3C//DTD SVG 1.1//EN" "http://www.w3.org/Graphics/SVG/1.1/DTD/svg11.dtd"><svg t="1734501979578" class="icon" viewBox="0 0 1024 1024" version="1.1" xmlns="http://www.w3.org/2000/svg" p-id="5180" width="32" height="32" xmlns:xlink="http://www.w3.org/1999/xlink"><path d="M428.583931 141.59053c55.82888-18.90118 102.996496-14.058552 141.545517 14.570548 57.812864 42.922318 129.492281 175.977237 108.948448 439.676427-39.167682 279.677728-234.174097 396.647444-272.851117 415.484625C367.571093 1030.180643 321.064805 1035.300602 352.467216 974.117099c31.402412-61.183503 102.889831-123.390997 114.02574-250.813963C464.146309 621.373298 429.223926 493.225006 361.704474 338.815594c-25.941123-67.519451-25.941123-116.564386 0-147.198804 20.010504-23.615808 42.324989-40.298339 66.90079-50.02626z" fill="#FF3741" p-id="5181"></path><path d="M508.028619 131.307946a127.870961 127.870961 0 0 1 62.079496 24.853132c57.812864 42.922318 129.492281 175.977237 108.969781 439.676427-28.010439 199.891709-135.614898 316.69076-208.851637 373.927629 93.695239-106.025805 135.529565-246.824661 152.105431-406.674029 4.479964-115.455062-26.26112-240.958042-92.180584-376.530274l-22.14382-55.252885z" fill="#B31528" p-id="5182"></path><path d="M354.707198 0.002347c8.63993 0.021333 18.687848 5.845286 22.741149 12.650564 3.989301 6.506614 7.103942 11.519906 9.855919 15.957203l3.114642 5.034626 3.455972 5.610621c5.162625 8.405265 10.581247 17.450525 20.949163 35.157048 10.474582 17.919854 29.781091 42.132991 45.226299 58.879521 35.989041-6.677279 67.946115-2.133316 95.807222 13.589223-23.061146 7.146609-26.026455 26.453118-26.197121 34.666385v2.047984l0.127999 1.770652c-87.529955-31.445078-99.455192 42.004992-99.455192 42.004992-34.986382-17.045195-64.212812-5.183958-87.636621 35.562378-2.282648-29.887757 4.0533-53.652897 18.986512-71.295421a193.747759 193.747759 0 0 1 32.362404-30.698417l1.21599 6.165283C385.064285 112.918763 372.008391 71.212435 355.987188 41.943339a165.267991 165.267991 0 0 0-9.685255-15.679872C342.632629 22.530164 337.23534 8.855608 346.301933 2.412994A14.229218 14.229218 0 0 1 354.707198 0.002347z" fill="#50C41A" p-id="5183"></path><path d="M555.857564 146.881153c-27.861107-15.722539-59.818181-20.266502-95.807222-13.589223-15.445208-16.746531-34.751718-40.959667-45.226299-58.879521-10.346583-17.706523-15.786538-26.751783-20.949163-35.157048l-3.455972-5.610621-0.895993-1.429322-0.853326-1.365322c-0.426663-0.746661-0.895993-1.493321-1.365323-2.239982-2.751978-4.415964-5.866619-9.45059-9.855919-15.957203C373.395046 5.826299 363.347128 0.002347 354.707198 0.002347a14.229218 14.229218 0 0 0-8.405265 2.43198 11.391907 11.391907 0 0 0-4.693295 7.317274C351.400558 8.066281 358.248503 8.791609 362.21647 11.948916c28.458435 54.399558 49.108934 97.257876 61.375502 140.244194 0 0-0.426663 10.175917 15.402541 2.453313 15.829205-7.701271 37.973025-3.199974 46.676954 9.770588 3.050642 4.543963 5.546622 8.917261 7.445273 13.162559 10.453248 0.383997 22.570483 2.709311 36.693035 7.786604 0 0-0.085333-0.639995-0.127999-1.770652V181.547538c0.149332-8.213267 3.114641-27.519776 26.175788-34.666385z" fill="#217804" p-id="5184"></path><path d="M421.714654 913.658923c94.271234-131.838929 96.297884-310.290812 6.101283-535.312984-20.86383-67.882115-13.290559-73.471403 22.698483-16.725197 2.005317 4.266632 4.181299 8.426598 6.378614 12.586564 3.861302 7.35994 7.743937 14.741214 10.687914 22.826481 61.140837 167.678638 68.308778 299.13357 28.159771 410.876662-17.642523 49.130267-49.300933 98.047203-63.210153 111.743092-39.039683 38.485021-19.626507 7.914602-12.373233-3.562638l1.557321-2.43198z" fill="#FFA19E" p-id="5185"></path></svg>