<?xml version="1.0" standalone="no"?><!DOCTYPE svg PUBLIC "-//W3C//DTD SVG 1.1//EN" "http://www.w3.org/Graphics/SVG/1.1/DTD/svg11.dtd"><svg t="1728727350681" class="icon" viewBox="0 0 1024 1024" version="1.1" xmlns="http://www.w3.org/2000/svg" p-id="3960" xmlns:xlink="http://www.w3.org/1999/xlink" width="16" height="16"><path d="M512 512m-512 0a512 512 0 1 0 1024 0 512 512 0 1 0-1024 0Z" fill="#F9E5E3" p-id="3961"></path><path d="M288 346.688a96 96 0 0 1 96-96h256a96 96 0 0 1 96 96v186.72c-1.088 1.088-3.2 3.136-8 7.968l-28.544 28.416-88.192 87.456-61.184 62.4-22.016 22.336-32.096 31.36H384a96 96 0 0 1-96-96V346.688zM699.68 624.256l-58.4 57.92-38.944 39.712-13.984 14.208-0.032 0.032-7.296 7.264a47.36 47.36 0 0 0-9.824 13.76l-0.064 0.128a87.456 87.456 0 0 0-3.2 9.024l-4.256 13.216-4 13.824-0.032 0.128c-0.96 3.808-1.6 6.848-2.016 8.96l-0.224 1.088a15.552 15.552 0 0 0 1.472 12l0.128 0.224 0.16 0.224c2.72 3.2 7.136 3.648 12.064 2.976h0.16c3.424-0.672 6.848-1.536 10.24-2.56a127.04 127.04 0 0 0 14.4-3.968c3.264-0.896 6.4-2.016 9.472-3.104h0.064a248.32 248.32 0 0 1 4.96-1.696l12.16-5.664 6.976-4.288 6.688-5.12 19.232-19.84 0.032-0.032 38.912-39.168 56.992-56.992-51.84-52.256zM780.608 647.264a19.808 19.808 0 0 0 6.592-15.36v-0.16a54.272 54.272 0 0 0-2.368-12.192l-0.128-0.288a50.272 50.272 0 0 0-10.592-15.776 43.36 43.36 0 0 0-12.864-10.56 32.736 32.736 0 0 0-14.432-4 20.672 20.672 0 0 0-16.896 6.112l-7.008 6.08-10.08 9.152 52.16 51.936 2.208-1.6a29.536 29.536 0 0 0 4.48-3.872l3.936-4.32 4.992-5.12z" fill="#FF4D4F" p-id="3962"></path><path d="M288 346.688a96 96 0 0 1 96-96h256a96 96 0 0 1 96 96v175.456c0 7.2-2.88 14.112-8 19.2l-28.544 28.48-88.192 87.424-61.184 62.4-22.016 22.336a110.144 110.144 0 0 1-76.96 31.36H384a96 96 0 0 1-96-96V346.688zM699.68 624.256l-58.4 57.92-38.944 39.712-13.984 14.208-0.032 0.032-7.296 7.264a47.36 47.36 0 0 0-9.824 13.76l-0.064 0.128a87.456 87.456 0 0 0-3.2 9.024l-4.256 13.216-4 13.824-0.032 0.128c-0.96 3.808-1.6 6.848-2.016 8.96l-0.224 1.088a15.552 15.552 0 0 0 1.472 12l0.128 0.224 0.16 0.224c2.72 3.2 7.136 3.648 12.064 2.976h0.16c3.424-0.672 6.848-1.536 10.24-2.56a127.04 127.04 0 0 0 14.4-3.968c3.264-0.896 6.4-2.016 9.472-3.104h0.064a248.32 248.32 0 0 1 4.96-1.696l12.16-5.664 6.976-4.288 6.688-5.12 19.232-19.84 0.032-0.032 38.912-39.168 56.992-56.992-51.84-52.256zM780.608 647.264a19.808 19.808 0 0 0 6.592-15.36v-0.16a54.272 54.272 0 0 0-2.368-12.192l-0.128-0.288a50.272 50.272 0 0 0-10.592-15.776 43.36 43.36 0 0 0-12.864-10.56 32.736 32.736 0 0 0-14.432-4 20.672 20.672 0 0 0-16.896 6.112l-7.008 6.08-10.08 9.152 52.16 51.936 2.208-1.6a29.536 29.536 0 0 0 4.48-3.872l3.936-4.32 4.992-5.12z" fill="#FF4D4F" p-id="3963"></path><path d="M288 346.688a96 96 0 0 1 96-96h256a96 96 0 0 1 96 96v186.72c-1.088 1.088-3.2 3.136-8 7.968l-28.544 28.416-88.192 87.456-61.184 62.4-22.016 22.336-32.096 31.36H384a96 96 0 0 1-96-96V346.688zM699.68 624.256l-58.4 57.92-38.944 39.712-13.984 14.208-0.032 0.032-7.296 7.264a47.36 47.36 0 0 0-9.824 13.76l-0.064 0.128a87.456 87.456 0 0 0-3.2 9.024l-4.256 13.216-4 13.824-0.032 0.128c-0.96 3.808-1.6 6.848-2.016 8.96l-0.224 1.088a15.552 15.552 0 0 0 1.472 12l0.128 0.224 0.16 0.224c2.72 3.2 7.136 3.648 12.064 2.976h0.16c3.424-0.672 6.848-1.536 10.24-2.56a127.04 127.04 0 0 0 14.4-3.968c3.264-0.896 6.4-2.016 9.472-3.104h0.064a248.32 248.32 0 0 1 4.96-1.696l12.16-5.664 6.976-4.288 6.688-5.12 19.232-19.84 0.032-0.032 38.912-39.168 56.992-56.992-51.84-52.256zM780.608 647.264a19.808 19.808 0 0 0 6.592-15.36v-0.16a54.272 54.272 0 0 0-2.368-12.192l-0.128-0.288a50.272 50.272 0 0 0-10.592-15.776 43.36 43.36 0 0 0-12.864-10.56 32.736 32.736 0 0 0-14.432-4 20.672 20.672 0 0 0-16.896 6.112l-7.008 6.08-10.08 9.152 52.16 51.936 2.208-1.6a29.536 29.536 0 0 0 4.48-3.872l3.936-4.32 4.992-5.12z" fill="#FF4D4F" p-id="3964"></path><path d="M288 346.688a96 96 0 0 1 96-96h256a96 96 0 0 1 96 96v175.456c0 7.2-2.88 14.112-8 19.2l-28.544 28.48-88.192 87.424-61.184 62.4-22.016 22.336a110.144 110.144 0 0 1-76.96 31.36H384a96 96 0 0 1-96-96V346.688zM699.68 624.256l-58.4 57.92-38.944 39.712-13.984 14.208-0.032 0.032-7.296 7.264a47.36 47.36 0 0 0-9.824 13.76l-0.064 0.128a87.456 87.456 0 0 0-3.2 9.024l-4.256 13.216-4 13.824-0.032 0.128c-0.96 3.808-1.6 6.848-2.016 8.96l-0.224 1.088a15.552 15.552 0 0 0 1.472 12l0.128 0.224 0.16 0.224c2.72 3.2 7.136 3.648 12.064 2.976h0.16c3.424-0.672 6.848-1.536 10.24-2.56a127.04 127.04 0 0 0 14.4-3.968c3.264-0.896 6.4-2.016 9.472-3.104h0.064a248.32 248.32 0 0 1 4.96-1.696l12.16-5.664 6.976-4.288 6.688-5.12 19.232-19.84 0.032-0.032 38.912-39.168 56.992-56.992-51.84-52.256zM780.608 647.264a19.808 19.808 0 0 0 6.592-15.36v-0.16a54.272 54.272 0 0 0-2.368-12.192l-0.128-0.288a50.272 50.272 0 0 0-10.592-15.776 43.36 43.36 0 0 0-12.864-10.56 32.736 32.736 0 0 0-14.432-4 20.672 20.672 0 0 0-16.896 6.112l-7.008 6.08-10.08 9.152 52.16 51.936 2.208-1.6a29.536 29.536 0 0 0 4.48-3.872l3.936-4.32 4.992-5.12z" fill="#FF4D4F" p-id="3965"></path><path d="M409.6 396.768a25.6 25.6 0 1 1 0-51.2h204.8a25.6 25.6 0 0 1 0 51.2h-204.8zM409.6 515.136a25.6 25.6 0 1 1 0-51.2h204.8a25.6 25.6 0 0 1 0 51.2h-204.8zM384 607.904a25.6 25.6 0 0 0 25.6 25.6h108.8a25.6 25.6 0 0 0 0-51.2h-108.8a25.6 25.6 0 0 0-25.6 25.6z" fill="#FFFFFF" p-id="3966"></path></svg>