<?xml version="1.0" standalone="no"?><!DOCTYPE svg PUBLIC "-//W3C//DTD SVG 1.1//EN" "http://www.w3.org/Graphics/SVG/1.1/DTD/svg11.dtd"><svg class="icon" width="32px" height="32.00px" viewBox="0 0 1024 1024" version="1.1" xmlns="http://www.w3.org/2000/svg"><path fill="#8a8a8a" d="M885.333333 96A74.666667 74.666667 0 0 1 960 170.666667v512a74.666667 74.666667 0 0 1-74.666667 74.666666h-167.168l47.786667 127.424A32 32 0 0 1 736 928h-426.666667a32 32 0 0 1-29.973333-43.242667l47.786667-127.424H160A74.666667 74.666667 0 0 1 85.333333 682.666667V170.666667a74.666667 74.666667 0 0 1 74.666667-74.666667h725.333333z m-235.52 661.333333H395.52l-40 106.666667h334.293333l-40-106.666667z m235.52-597.333333h-725.333333A10.666667 10.666667 0 0 0 149.333333 170.666667v512a10.666667 10.666667 0 0 0 10.666667 10.666666h725.333333a10.666667 10.666667 0 0 0 10.666667-10.666666V170.666667a10.666667 10.666667 0 0 0-10.666667-10.666667z"  /></svg>