<?xml version="1.0" standalone="no"?><!DOCTYPE svg PUBLIC "-//W3C//DTD SVG 1.1//EN" "http://www.w3.org/Graphics/SVG/1.1/DTD/svg11.dtd"><svg class="icon" width="32px" height="32.00px" viewBox="0 0 1024 1024" version="1.1" xmlns="http://www.w3.org/2000/svg"><path fill="#8a8a8a" d="M354.666667 160.170667c-13.248 0-24 10.752-24 24v91.989333h-64V184.170667a88 88 0 0 1 88-88h485.333333A88 88 0 0 1 928 184.170667v485.333333a88 88 0 0 1-88 88h-93.013333v-64h93.013333c13.248 0 24-10.730667 24-24V184.170667c0-13.226667-10.752-24-24-24h-485.333333z"  /><path fill="#8a8a8a" d="M96 354.837333a88 88 0 0 1 88-88h485.333333a88 88 0 0 1 88 88v485.333334a88 88 0 0 1-88 88H184A88 88 0 0 1 96 840.170667v-485.333334z m88-24c-13.248 0-24 10.752-24 24v485.333334c0 13.269333 10.752 24 24 24h485.333333c13.248 0 24-10.730667 24-24v-485.333334c0-13.226667-10.752-24-24-24H184z"  /></svg>