<?xml version="1.0" standalone="no"?><!DOCTYPE svg PUBLIC "-//W3C//DTD SVG 1.1//EN" "http://www.w3.org/Graphics/SVG/1.1/DTD/svg11.dtd"><svg class="icon" width="32px" height="32.00px" viewBox="0 0 1024 1024" version="1.1" xmlns="http://www.w3.org/2000/svg"><path fill="#8a8a8a" d="M266.666667 437.333333V298.666667c0-135.488 109.845333-245.333333 245.333333-245.333334S757.333333 163.178667 757.333333 298.666667v138.666666H853.333333a74.666667 74.666667 0 0 1 74.666667 74.666667v384a74.666667 74.666667 0 0 1-74.666667 74.666667H170.666667A74.666667 74.666667 0 0 1 96 896V512A74.666667 74.666667 0 0 1 170.666667 437.333333h96z m64-138.666666v138.666666h362.666666V298.666667a181.333333 181.333333 0 0 0-362.666666 0zM170.666667 501.333333a10.666667 10.666667 0 0 0-10.666667 10.666667v384a10.666667 10.666667 0 0 0 10.666667 10.666667h682.666666a10.666667 10.666667 0 0 0 10.666667-10.666667V512a10.666667 10.666667 0 0 0-10.666667-10.666667H170.666667z"  /></svg>