<?xml version="1.0" standalone="no"?><!DOCTYPE svg PUBLIC "-//W3C//DTD SVG 1.1//EN" "http://www.w3.org/Graphics/SVG/1.1/DTD/svg11.dtd"><svg t="1736390562568" class="icon" viewBox="0 0 1024 1024" version="1.1" xmlns="http://www.w3.org/2000/svg" p-id="4637" xmlns:xlink="http://www.w3.org/1999/xlink" width="16" height="16"><path d="M512 512m-512 0a512 512 0 1 0 1024 0 512 512 0 1 0-1024 0Z" fill="#D7EDFA" p-id="4638"></path><path d="M250.624 265.472A26.624 26.624 0 0 0 224 292.096v313.664c0 14.688 11.936 26.592 26.624 26.592H304.96l44.48 44.48a26.624 26.624 0 0 0 37.632 0l44.48-44.48h27.68v77.952c0 14.72 11.936 26.624 26.624 26.624h132.736l31.424 31.392a26.624 26.624 0 0 0 37.632 0l31.424-31.392h54.304c14.72 0 26.624-11.936 26.624-26.624v-209.088a26.624 26.624 0 0 0-26.624-26.624h-77.92V292.096a26.624 26.624 0 0 0-26.624-26.624H250.624z" fill="#40A9FF" p-id="4639"></path><path d="M328.576 501.184c0-14.688 11.904-26.592 26.592-26.592h78.4a26.624 26.624 0 1 1 0 53.216H355.2a26.624 26.624 0 0 1-26.624-26.624zM355.2 370.016a26.624 26.624 0 1 0 0 53.248H512a26.624 26.624 0 0 0 0-53.248h-156.8z" fill="#FFFFFF" p-id="4640"></path><path d="M695.456 605.76v-72.192c0-3.168 2.56-5.76 5.76-5.76h39.776c3.2 0 5.76 2.592 5.76 5.76v144.32c0 3.2-2.56 5.76-5.76 5.76h-32.96a26.624 26.624 0 0 0-18.816 7.84l-16.32 16.32a5.76 5.76 0 0 1-8.128 0l-16.32-16.32a26.624 26.624 0 0 0-18.816-7.808h-111.36a5.76 5.76 0 0 1-5.76-5.76v-39.776c0-3.2 2.56-5.76 5.76-5.76H668.8c14.72 0 26.624-11.936 26.624-26.624z" fill="#FFFFFF" p-id="4641"></path></svg>