<?xml version="1.0" standalone="no"?><!DOCTYPE svg PUBLIC "-//W3C//DTD SVG 1.1//EN" "http://www.w3.org/Graphics/SVG/1.1/DTD/svg11.dtd"><svg t="1732009002496" class="icon" viewBox="0 0 1024 1024" version="1.1" xmlns="http://www.w3.org/2000/svg" p-id="5213" xmlns:xlink="http://www.w3.org/1999/xlink" width="16" height="16"><path d="M512 512m-512 0a512 512 0 1 0 1024 0 512 512 0 1 0-1024 0Z" fill="#D7EDFA" p-id="5214"></path><path d="M435.2 247.424c-27.424 0-50.176 22.016-50.176 49.824v228.096H332.8c-27.392 0-50.176 21.984-50.176 49.824v152.224H256a24.576 24.576 0 0 0 0 49.184h512a24.576 24.576 0 0 0 0-49.152h-26.624V297.28c0-27.84-22.784-49.856-50.176-49.856h-256z" fill="#40A9FF" p-id="5215"></path><path d="M656 320h-192a16 16 0 0 0-16 16v16a16 16 0 0 0 16 16h192a16 16 0 0 0 16-16v-16a16 16 0 0 0-16-16zM384 613.12h-16a16 16 0 0 0-16 16v16a16 16 0 0 0 16 16h16a16 16 0 0 0 16-16v-16a16 16 0 0 0-16-16zM592 400h-128a16 16 0 0 0-16 16v16a16 16 0 0 0 16 16h128a16 16 0 0 0 16-16V416a16 16 0 0 0-16-16z" fill="#FFFFFF" p-id="5216"></path><path d="M480 588.8a83.2 83.2 0 1 1 154.016 43.68l32.352 32.32a19.2 19.2 0 0 1-27.136 27.2l-32.352-32.384A83.2 83.2 0 0 1 480 588.8z m83.2-44.8a44.8 44.8 0 1 0 0 89.6 44.8 44.8 0 0 0 0-89.6z" fill="#FFFFFF" p-id="5217"></path></svg>