<?xml version="1.0" standalone="no"?><!DOCTYPE svg PUBLIC "-//W3C//DTD SVG 1.1//EN" "http://www.w3.org/Graphics/SVG/1.1/DTD/svg11.dtd"><svg t="1734667033037" class="icon" viewBox="0 0 1024 1024" version="1.1" xmlns="http://www.w3.org/2000/svg" p-id="5156" xmlns:xlink="http://www.w3.org/1999/xlink" width="32" height="32"><path d="M398.933333 694.250667l0.021334-263.424h64L462.933333 694.250667h-64zM561.066667 430.826667L561.066667 694.272h64l0.021333-263.424h-64z" p-id="5157"></path><path d="M416.597333 74.581333a32 32 0 0 0-28.053333 16.64l-57.557333 104.96-122.88-0.042666h-101.333334v64h69.312L176 917.12a32 32 0 0 0 32 32l607.914667 0.085333a32 32 0 0 0 32-32l0.106666-656.981333H917.333333v-64H693.333333l-56.256-104.746667a32 32 0 0 0-28.181333-16.853333l-192.277333-0.042667z m-66.922666 185.6h0.256l324.224 0.021334H784.021333l-0.085333 625.002666-543.936-0.064 0.085333-624.981333h109.589334z m270.976-64H403.968l31.573333-57.6 154.176 0.021334 30.933334 57.6z" p-id="5158"></path></svg>