<?xml version="1.0" standalone="no"?><!DOCTYPE svg PUBLIC "-//W3C//DTD SVG 1.1//EN" "http://www.w3.org/Graphics/SVG/1.1/DTD/svg11.dtd"><svg t="1733198192427" class="icon" viewBox="0 0 1024 1024" version="1.1" xmlns="http://www.w3.org/2000/svg" p-id="4293" xmlns:xlink="http://www.w3.org/1999/xlink" width="32" height="32"><path d="M512 512m-512 0a512 512 0 1 0 1024 0 512 512 0 1 0-1024 0Z" fill="#EEF4FF" p-id="4294"></path><path d="M614.4 601.7024h-51.2a24.32 24.32 0 1 0 0 48.64h51.2a24.32 24.32 0 0 0 0-48.64zM614.4 486.5024h-51.2a24.32 24.32 0 1 0 0 48.64h51.2a24.32 24.32 0 0 0 0-48.64zM614.4 371.3024h-51.2a24.32 24.32 0 0 0 0 48.64h51.2a24.32 24.32 0 1 0 0-48.64zM359.68 626.0224a24.32 24.32 0 1 0 48.64 0 24.32 24.32 0 0 0-48.64 0z" fill="#2B6CFF" p-id="4295"></path><path d="M768 729.6h-26.88V293.12A49.92 49.92 0 0 0 691.2 243.2h-204.8a49.92 49.92 0 0 0-49.92 49.92v180.48H332.8a49.92 49.92 0 0 0-49.92 49.92v206.08H256a24.32 24.32 0 1 0 0 48.64h512a24.32 24.32 0 1 0 0-48.64z m-32.4608 5.12z m-498.7392 19.2a19.2 19.2 0 0 1 19.2-19.2h32.4608a45.1072 45.1072 0 0 1-0.4608-6.4v-204.8c0-24.7296 20.0704-44.8 44.8-44.8h102.4a45.1072 45.1072 0 0 1 1.28 0H332.8a44.8 44.8 0 0 0-44.8 44.8v204.8a42.24 42.24 0 0 0 0.4608 6.4H256a19.2 19.2 0 0 0-19.2 19.2zM486.4 734.72h204.8-204.8z m204.8-5.12h-204.8a1.28 1.28 0 0 1-1.28-1.28v-435.2a1.28 1.28 0 0 1 1.28-1.28h204.8a1.28 1.28 0 0 1 1.28 1.28v435.2a1.28 1.28 0 0 1-1.28 1.28z m-249.6-206.08v204.8-204.8zM435.2 522.24a1.28 1.28 0 0 1 1.28 1.28v204.8a1.28 1.28 0 0 1-1.28 1.28h-102.4a1.28 1.28 0 0 1-1.28-1.28v-204.8a1.28 1.28 0 0 1 1.28-1.28h102.4z" fill="#2B6CFF" p-id="4296"></path></svg>