<?xml version="1.0" standalone="no"?><!DOCTYPE svg PUBLIC "-//W3C//DTD SVG 1.1//EN" "http://www.w3.org/Graphics/SVG/1.1/DTD/svg11.dtd"><svg t="1736817822691" class="icon" viewBox="0 0 1024 1024" version="1.1" xmlns="http://www.w3.org/2000/svg" p-id="4835" width="16" height="16" xmlns:xlink="http://www.w3.org/1999/xlink"><path d="M906.666667 565.333333c0-169.28-106.56-313.6-256.170667-369.685333a138.666667 138.666667 0 0 0-276.992 0C223.893333 251.754667 117.333333 396.053333 117.333333 565.333333c0 35.242667 4.629333 69.44 13.312 101.994667a138.666667 138.666667 0 1 0 161.237334 225.621333A392.96 392.96 0 0 0 512 960a392.96 392.96 0 0 0 220.117333-67.050667A138.026667 138.026667 0 0 0 810.666667 917.333333a138.24 138.24 0 0 0 100.16-42.773333A138.197333 138.197333 0 0 0 949.333333 778.666667a138.453333 138.453333 0 0 0-55.978666-111.338667c8.682667-32.554667 13.312-66.773333 13.312-101.994667zM612.16 298.56a138.901333 138.901333 0 0 0 26.282667-38.869333C758.336 309.333333 842.666667 427.52 842.666667 565.333333c0 26.389333-3.093333 52.032-8.917334 76.586667a139.605333 139.605333 0 0 0-81.408 10.901333 138.666667 138.666667 0 0 0-63.573333 192A328.981333 328.981333 0 0 1 512 896c-65.066667 0-125.653333-18.773333-176.768-51.157333a138.666667 138.666667 0 0 0-144.981333-202.922667A331.669333 331.669333 0 0 1 181.333333 565.333333c0-137.813333 84.309333-256 204.224-305.642666a138.709333 138.709333 0 0 0 226.602667 38.869333zM512 128a74.666667 74.666667 0 1 1 0 149.333333 74.666667 74.666667 0 0 1 0-149.333333z m298.666667 576a74.666667 74.666667 0 1 1 0 149.333333 74.666667 74.666667 0 0 1 0-149.333333z m-522.666667 74.666667c0 20.053333-7.893333 38.229333-20.736 51.626666a74.666667 74.666667 0 1 1 20.736-51.626666z" p-id="4836"></path></svg>