<?xml version="1.0" standalone="no"?><!DOCTYPE svg PUBLIC "-//W3C//DTD SVG 1.1//EN" "http://www.w3.org/Graphics/SVG/1.1/DTD/svg11.dtd"><svg t="1716350458183" class="icon" viewBox="0 0 1024 1024" version="1.1" xmlns="http://www.w3.org/2000/svg" p-id="2482" xmlns:xlink="http://www.w3.org/1999/xlink" width="200" height="200"><path d="M677.461333 105.386667a32 32 0 0 0-45.269333 0L190.698667 547.413333a32 32 0 0 0-9.365334 22.613334V725.333333a32 32 0 0 0 32 32h156.096a32 32 0 0 0 22.634667-9.386666l441.237333-441.429334a32 32 0 0 0 0-45.226666L677.461333 105.386667zM245.333333 583.253333L654.826667 173.290667l110.592 110.634666L356.181333 693.333333H245.333333v-110.08z" p-id="2483"></path><path d="M128 928h768v-64H128v64z" p-id="2484"></path></svg>