<?xml version="1.0" standalone="no"?><!DOCTYPE svg PUBLIC "-//W3C//DTD SVG 1.1//EN" "http://www.w3.org/Graphics/SVG/1.1/DTD/svg11.dtd"><svg t="1733206009049" class="icon" viewBox="0 0 1024 1024" version="1.1" xmlns="http://www.w3.org/2000/svg" p-id="4452" xmlns:xlink="http://www.w3.org/1999/xlink" width="32" height="32"><path d="M512 512m-512 0a512 512 0 1 0 1024 0 512 512 0 1 0-1024 0Z" fill="#FFFFFF" fill-opacity=".2" p-id="4453"></path><path d="M512 512m-512 0a512 512 0 1 0 1024 0 512 512 0 1 0-1024 0Z" fill="#E6F8D5" p-id="4454"></path><path d="M762.976 408.128l0.064 0.416c3.2 10.048 4.96 21.12 4.96 32.256 0 38.4-20.256 73.664-52.896 92.096-13.76 7.776-30.08 11.776-48.512 11.904a99.52 99.52 0 0 1-77.696-37.216 99.36 99.36 0 0 1-76.704 37.312 99.776 99.776 0 0 1-77.12-37.184 100.16 100.16 0 0 1-77.44 37.28h-0.128c-18.048 0-34.144-3.808-47.712-11.36C276.64 515.36 256 479.904 256 441.088c0-11.072 1.696-22.016 5.056-32.8a23.808 23.808 0 0 1 0.544-2.112l0.16-0.544L308.288 292.16c7.136-22.112 26.976-36.16 52.48-36.16h303.744c25.984 0 46.72 14.336 54.176 37.28l43.36 111.264a16.64 16.64 0 0 1 0.96 3.584z" fill="#52C41A" p-id="4455"></path><path d="M711.232 560.576c10.24 0 18.464 8.48 18.464 19.04l0.096 139.296c0 26.816-21.216 48.736-47.232 48.864l-347.36 0.192c-26.112 0-47.36-21.92-47.36-48.768l-0.096-137.44c0-10.432 8.256-19.04 18.464-19.04 1.376 0 4.064 0.512 4.064 0.512a69.12 69.12 0 0 0 3.584 1.312c16.064 6.144 26.08 9.632 43.744 9.632h0.096c28.992 0 56.16-9.12 77.504-27.84 21.12 18.624 48.224 26.112 77.184 26.304a117.216 117.216 0 0 0 76.512-29.376c21.344 18.72 43.552 24.672 72.64 26.304 13.184 0.736 30.656-2.24 44.352-7.872a16.192 16.192 0 0 1 5.344-1.12z" fill="#52C41A" p-id="4456"></path><path d="M416 652.8m25.6 0l140.8 0q25.6 0 25.6 25.6l0 0q0 25.6-25.6 25.6l-140.8 0q-25.6 0-25.6-25.6l0 0q0-25.6 25.6-25.6Z" fill="#FFFFFF" p-id="4457"></path></svg>