<?xml version="1.0" standalone="no"?><!DOCTYPE svg PUBLIC "-//W3C//DTD SVG 1.1//EN" "http://www.w3.org/Graphics/SVG/1.1/DTD/svg11.dtd"><svg class="icon" width="32px" height="32.00px" viewBox="0 0 1024 1024" version="1.1" xmlns="http://www.w3.org/2000/svg"><path fill="#8a8a8a" d="M192 170.666667a21.333333 21.333333 0 0 0-21.333333 21.333333v640a21.333333 21.333333 0 0 0 21.333333 21.333333h640a21.333333 21.333333 0 0 0 21.333333-21.333333v-203.221333h85.333334V832a106.666667 106.666667 0 0 1-106.666667 106.666667H192a106.666667 106.666667 0 0 1-106.666667-106.666667V192a106.666667 106.666667 0 0 1 106.666667-106.666667h192v85.333334H192z"  /><path fill="#8a8a8a" d="M792.981333 170.666667H597.333333V85.333333h341.333334v341.333334h-85.333334v-195.669334L580.565333 503.765333l-60.330666-60.330666L792.96 170.666667z"  /></svg>