<?xml version="1.0" standalone="no"?><!DOCTYPE svg PUBLIC "-//W3C//DTD SVG 1.1//EN" "http://www.w3.org/Graphics/SVG/1.1/DTD/svg11.dtd"><svg class="icon" width="32px" height="32.00px" viewBox="0 0 1024 1024" version="1.1" xmlns="http://www.w3.org/2000/svg"><path fill="#8a8a8a" d="M512 373.504a138.666667 138.666667 0 1 0 0 277.333333 138.666667 138.666667 0 0 0 0-277.333333z m-74.666667 138.666667a74.666667 74.666667 0 1 1 149.333334 0 74.666667 74.666667 0 0 1-149.333334 0z"  /><path fill="#8a8a8a" d="M512 224.170667c-128.96 0-242.837333 69.674667-322.133333 135.381333a912.853333 912.853333 0 0 0-94.784 91.221333 794.901333 794.901333 0 0 0-32.810667 38.890667l-1.856 2.410667-0.490667 0.661333-0.149333 0.213333-0.085333 0.064L85.333333 512.170667l-25.642666-19.136-14.293334 19.136 14.293334 19.157333L85.333333 512.170667l-25.642666 19.157333 0.085333 0.106667 0.149333 0.192 0.490667 0.661333 1.856 2.389333c1.578667 2.048 3.904 4.992 6.890667 8.682667 5.973333 7.36 14.72 17.770667 25.92 30.229333A912.853333 912.853333 0 0 0 189.866667 664.810667c79.274667 65.706667 193.152 135.36 322.112 135.36s242.837333-69.653333 322.133333-135.36a913.066667 913.066667 0 0 0 94.805333-91.221334 793.728 793.728 0 0 0 32.789334-38.912c0.810667-1.002667 1.408-1.813333 1.856-2.389333l0.490666-0.661333 0.170667-0.213334 0.064-0.085333L938.666667 512.170667l25.642666 19.157333 14.293334-19.157333-14.293334-19.136-25.642666 19.136 25.642666-19.157334-0.064-0.085333-0.170666-0.192-0.490667-0.661333a518.741333 518.741333 0 0 0-8.746667-11.050667c-5.973333-7.381333-14.72-17.792-25.92-30.250667a913.066667 913.066667 0 0 0-94.805333-91.221333c-79.253333-65.706667-193.152-135.381333-322.112-135.381333zM142.656 530.773333c-6.293333-6.997333-11.733333-13.269333-16.213333-18.602666a848.917333 848.917333 0 0 1 104.277333-103.36C305.877333 346.517333 405.333333 288.170667 512 288.170667c106.666667 0 206.122667 58.346667 281.28 120.64a848.853333 848.853333 0 0 1 104.277333 103.36 848.853333 848.853333 0 0 1-104.277333 103.36C718.122667 677.845333 618.666667 736.192 512 736.192c-106.666667 0-206.122667-58.346667-281.28-120.618667a848.917333 848.917333 0 0 1-88.064-84.778666z"  /></svg>