<?xml version="1.0" standalone="no"?><!DOCTYPE svg PUBLIC "-//W3C//DTD SVG 1.1//EN" "http://www.w3.org/Graphics/SVG/1.1/DTD/svg11.dtd"><svg class="icon" width="32px" height="32.00px" viewBox="0 0 1024 1024" version="1.1" xmlns="http://www.w3.org/2000/svg"><path fill="#8a8a8a" d="M141.610667 298.346667l14.784 28.373333c11.178667 21.504 28.629333 42.389333 52.117333 61.632C274.773333 442.666667 384.746667 480.170667 512 480.170667c127.253333 0 237.205333-37.482667 303.488-91.818667 23.466667-19.242667 40.96-40.128 52.138667-61.610667l14.762666-28.373333 56.768 29.525333-14.784 28.394667c-15.893333 30.528-39.466667 57.92-68.309333 81.557333-5.76 4.736-11.776 9.344-18.005333 13.802667l124.757333 124.757333-45.269333 45.248-136.128-136.149333c-37.546667 18.688-79.936 33.408-125.610667 43.434667l45.738667 170.730666-61.824 16.554667-47.338667-176.682667a691.84 691.84 0 0 1-80.384 4.629334c-27.541333 0-54.613333-1.6-80.896-4.693334l-47.36 176.746667-61.802667-16.554667 45.76-170.837333c-45.44-10.026667-87.616-24.661333-124.970666-43.242667L106.666667 621.653333l-45.248-45.248 124.650666-124.672c-6.272-4.48-12.309333-9.130667-18.133333-13.888-28.842667-23.637333-52.416-51.029333-68.330667-81.557333l-14.762666-28.373333 56.746666-29.568z"  /></svg>