<?xml version="1.0" standalone="no"?><!DOCTYPE svg PUBLIC "-//W3C//DTD SVG 1.1//EN" "http://www.w3.org/Graphics/SVG/1.1/DTD/svg11.dtd"><svg class="icon" width="32px" height="32.00px" viewBox="0 0 1024 1024" version="1.1" xmlns="http://www.w3.org/2000/svg"><path d="M512 512m-512 0a512 512 0 1 0 1024 0 512 512 0 1 0-1024 0Z" fill="#EEF4FF" /><path d="M677.362872 262.564103c13.312 0 22.422974 1.522872 31.980307 6.957948 8.664615 4.962462 15.386256 12.235487 19.771077 20.952616 4.726154 9.452308 6.065231 18.353231 6.065231 32.006564V367.589744h26.25641a26.25641 26.25641 0 0 1 26.256411 26.25641v341.333333a26.25641 26.25641 0 0 1-26.256411 26.25641H262.564103a26.25641 26.25641 0 0 1-26.256411-26.25641V393.846154a26.25641 26.25641 0 0 1 26.256411-26.25641h26.25641v-45.108513c0-13.653333 1.312821-22.554256 6.065231-32.006564 4.384821-8.717128 11.080205-15.990154 19.771077-20.952616 9.557333-5.461333 18.668308-6.957949 31.980307-6.957948h330.725744z m-135.850667 325.369435l-62.070154 72.441436a26.25641 26.25641 0 0 1-36.338872 3.413334l-46.395076-37.100308L322.061128 708.923077h367.589744l-148.138667-120.989539zM735.179487 420.102564H288.820513v247.309128l85.595897-94.286769a26.25641 26.25641 0 0 1 35.84-2.861949l45.817436 36.653949 62.253949-72.625231a26.25641 26.25641 0 0 1 36.548923-3.229538L735.179487 678.308103V420.102564z m-367.589743 39.384615a39.384615 39.384615 0 1 1 0 78.769231 39.384615 39.384615 0 0 1 0-78.769231z m314.814359-144.252717l-2.940718-0.131283L346.637128 315.076923c-2.363077 0-3.938462 0.078769-5.014974 0.157539l-0.262564 5.146256L341.333333 367.589744h341.333334v-45.108513c0-3.833436-0.157538-6.038974-0.262564-7.246769z" fill="#2B6CFF" /></svg>