<?xml version="1.0" standalone="no"?><!DOCTYPE svg PUBLIC "-//W3C//DTD SVG 1.1//EN" "http://www.w3.org/Graphics/SVG/1.1/DTD/svg11.dtd"><svg t="1720771787891" class="icon" viewBox="0 0 1024 1024" version="1.1" xmlns="http://www.w3.org/2000/svg" p-id="5101" xmlns:xlink="http://www.w3.org/1999/xlink" width="200" height="200"><path d="M512 512m-512 0a512 512 0 1 0 1024 0 512 512 0 1 0-1024 0Z" fill="#FFF1DC" p-id="5102"></path><path d="M288 346.656a96 96 0 0 1 96-96h256a96 96 0 0 1 96 96v330.688a96 96 0 0 1-96 96h-256a96 96 0 0 1-96-96V346.656z" fill="#FF9A2E" fill-opacity=".976" p-id="5103"></path><path d="M446.688 439.744a74.08 74.08 0 0 1 104.992 0 18.88 18.88 0 0 1-26.72 26.752 36.288 36.288 0 0 0-25.792-10.688c-10.048 0-19.136 4.064-25.76 10.688a18.88 18.88 0 0 1-26.72-26.752z" fill="#FFFFFF" p-id="5104"></path><path d="M362.656 499.2a136.512 136.512 0 1 1 245.472 82.24l47.68 47.616a18.88 18.88 0 1 1-26.72 26.752l-47.68-47.68a136.512 136.512 0 0 1-218.752-108.96z m136.512-98.72a98.72 98.72 0 1 0 0 197.44 98.72 98.72 0 0 0 0-197.44z" fill="#FFFFFF" p-id="5105"></path></svg>