<?xml version="1.0" standalone="no"?><!DOCTYPE svg PUBLIC "-//W3C//DTD SVG 1.1//EN" "http://www.w3.org/Graphics/SVG/1.1/DTD/svg11.dtd"><svg t="1729732795642" class="icon" viewBox="0 0 1024 1024" version="1.1" xmlns="http://www.w3.org/2000/svg" p-id="4002" xmlns:xlink="http://www.w3.org/1999/xlink" width="16" height="16"><path d="M98.922667 146.624A32 32 0 0 1 128 128h768a32 32 0 0 1 24.32 52.821333L620.8 530.602667V864a32 32 0 0 1-46.165333 28.693333l-153.6-75.861333a32 32 0 0 1-17.834667-28.693333V530.602667L103.68 180.821333a32 32 0 0 1-4.757333-34.197333zM197.546667 192l261.973333 305.962667a32 32 0 0 1 7.701333 20.821333v249.472l89.6 44.245333V518.784a32 32 0 0 1 7.68-20.821333L826.453333 192H197.546667z" fill="#262626" p-id="4003"></path><path d="M693.333333 576h234.666667v64h-234.666667v-64zM693.333333 746.666667v64h234.666667v-64h-234.666667z" fill="#262626" p-id="4004"></path></svg>