<?xml version="1.0" standalone="no"?><!DOCTYPE svg PUBLIC "-//W3C//DTD SVG 1.1//EN" "http://www.w3.org/Graphics/SVG/1.1/DTD/svg11.dtd"><svg class="icon" width="32px" height="32.00px" viewBox="0 0 1024 1024" version="1.1" xmlns="http://www.w3.org/2000/svg"><path d="M512 512m-512 0a512 512 0 1 0 1024 0 512 512 0 1 0-1024 0Z" fill="#EEF4FF" /><path d="M630.153846 433.230769a52.512821 52.512821 0 0 1 52.512821 52.512821v236.307692a52.512821 52.512821 0 0 1-52.512821 52.512821H288.820513a52.512821 52.512821 0 0 1-52.512821-52.512821v-236.307692a52.512821 52.512821 0 0 1 52.512821-52.512821h341.333333z m0 170.666667H288.820513v118.153846h341.333333V603.897436z m-170.666667 26.25641a26.25641 26.25641 0 0 1 0 52.512821h-105.025641a26.25641 26.25641 0 0 1 0-52.512821h105.025641z m105.025642 0a26.25641 26.25641 0 0 1 0 52.512821h-26.256411a26.25641 26.25641 0 0 1 0-52.512821h26.256411zM761.435897 275.692308a52.512821 52.512821 0 0 1 52.512821 52.51282v236.307693a52.512821 52.512821 0 0 1-52.512821 52.51282h-26.25641a26.25641 26.25641 0 0 1 0-52.51282h26.25641v-236.307693H420.102564v52.512821a26.25641 26.25641 0 0 1-52.51282 0v-52.512821a52.512821 52.512821 0 0 1 52.51282-52.51282h341.333333z m-131.282051 210.051282H288.820513V551.384615h341.333333v-65.641025z" fill="#2B6CFF" /></svg>