<?xml version="1.0" standalone="no"?><!DOCTYPE svg PUBLIC "-//W3C//DTD SVG 1.1//EN" "http://www.w3.org/Graphics/SVG/1.1/DTD/svg11.dtd"><svg t="1734514010265" class="icon" viewBox="0 0 1151 1024" version="1.1" xmlns="http://www.w3.org/2000/svg" p-id="4707" xmlns:xlink="http://www.w3.org/1999/xlink" width="35.96875" height="32"><path d="M809.863445 285.259136l3.169515-30.264807s26.59142 1.430345 43.804327 3.55961c0.926474 2.876945-1.023997 5.737635-4.144751 7.753121l-135.037604 87.689923 1.462853 2.226787c1.300314 2.015487-0.975235 11.702826-10.35375 20.658738l30.589886-6.550331 75.531987-49.054344 3.917196-25.681201 45.576004 3.348309c-0.487618 3.169515-2.226788 7.801884-6.924172 12.743076l31.402582 48.355425c0.926474 1.934217-11.052669 17.619254-21.520196 24.429649l-5.363795 3.462086-10.402512-16.042624-80.213117 52.093828 5.640112 8.69585c1.73917 2.681898-7.590583 18.561982-20.301152 26.802721l-4.453575 2.893198-51.362401-79.10785-5.575096 3.624626-44.129405-67.957658c-4.729892 13.198187-10.565051 26.168818-18.074364 38.034183l-3.39707-0.341333c6.013952-32.71915 1.966725-76.99484-8.143216-112.558426l50.159611-10.077433c0.487618 3.169515-1.332822 7.200489-6.891664 9.866132-0.097524 7.655598-0.650157 15.603767-1.625393 23.860761l2.438089-0.650157 47.250158-30.671155a29.370841 29.370841 0 0 1-12.483014 1.771677c-8.191978-11.150192-21.503942-19.943565-32.572864-23.828253l0.82895-2.129264c53.069063-30.97998 66.55982 4.924939 50.679736 19.992327l29.647158-19.244646 3.006976-29.517127s26.21758 1.349076 42.845345 3.543355c0.91022 2.876945-0.812696 5.59135-3.93345 7.606837l-59.050507 38.359262 12.743077 19.602232 16.936589-11.003906 2.828183-26.851484s23.925777 1.235298 39.236973 3.332055c0.926474 2.893199-0.585141 5.461319-3.933449 7.639344l-51.021069 33.125498 12.873108 19.829788 18.041856-11.719079 2.698151-27.095292s24.072062 1.462853 39.610814 3.429578c0.91022 2.876945-0.812696 5.59135-3.933449 7.62309l-52.353891 34.00321 13.311964 20.479945 30.963726-20.089851z m-109.567704 42.000141l13.328218 20.496199 34.75089-22.560447-13.328218-20.512453-34.75089 22.592955z m1.040251-74.491736L666.585102 275.344242l12.726822 19.602233 34.767145-22.560447-12.743077-19.618487z m29.663412 45.673528l-12.873108-19.829788-34.767144 22.592955 12.889362 19.829788 34.75089-22.592955z m90.615628 27.339101l-80.213116 52.093827 25.892501 39.887131 80.213117-52.093828-25.892502-39.88713z" p-id="4708" fill="#ffffff"></path><path d="M428.318824 423.092415l-5.835159-5.071224 100.498015-65.259507 2.356819-30.996234s26.949007 2.454343 43.495501 5.006209c1.137775 2.746913-0.812696 5.59135-3.917196 7.623091l-136.59798 88.697665z" p-id="4709" fill="#ffffff"></path><path d="M558.431489 425.400472l5.802651-3.754656c10.467527-6.810394 22.154099-22.950541 21.227625-24.868504l-17.944333-27.631672c3.657133-3.657133 4.941193-7.021695 5.038717-9.313499l-42.032649-2.779421-4.274782 23.665714-41.447507 26.916499-40.927381 9.167213 40.228462 61.927452 4.226021-2.730659c13.149425-8.549564 23.080573-24.47841 21.471434-26.932753l-1.869201-2.893198 45.007116-29.24081 5.493827 8.468294z m-9.541054-14.709801l-45.023371 29.24081-16.351447-25.193583 45.02337-29.224556 16.351448 25.193583z" p-id="4710" fill="#ffffff"></path><path d="M449.38391 357.475322l0.812696-2.129264c61.228533-40.391002 62.138753 24.917266 24.364633 21.877783-6.013952-9.719847-16.530241-17.14789-25.193583-19.748519zM441.289456 459.663745l-15.278689 3.267039a331.336249 331.336249 0 0 0-7.232997-60.870947c5.266272-3.1045 6.859156-6.989187 6.095222-10.613813l-51.037323 15.083642c20.414929 48.517964 31.906454 104.724035 32.832928 144.676181l3.462085-0.032508c4.859923-12.027904 8.69585-24.657203 11.280224-37.741612l74.377958 114.541405 6.013952-3.900942c12.255459-7.964423 20.837531-23.048065 19.829788-25.567423l-84.357868-129.901364c3.657133-3.640879 4.648622-6.50157 4.01472-8.939658z" p-id="4711" fill="#ffffff"></path><path d="M587.05465 399.2154l41.17119 7.801884c-0.633903 2.925706-2.340565 4.68113-6.729125 8.15947a760.683662 760.683662 0 0 1-15.847576 23.909523c5.087478 0.503872 10.158703 1.007743 14.433485 1.722916 0.91022 2.876945-0.812696 5.59135-3.93345 7.62309l-35.644856 23.145589 22.722986 34.978445c13.458249 20.723754 17.22916 38.245484-15.9451 63.260274-7.476805-10.028671-13.734566-16.741542-20.707499-19.179631-6.664109-1.999233-13.897105-2.389327-28.265575 3.787164l-1.73917-2.681897s26.640182-15.083642 31.760169-18.415697c3.348308-2.161772 3.592117-4.22602 2.145518-6.452808l-22.267877-34.312034-37.904151 24.592188-4.372306-3.803419c0.048762 2.503104-0.276317 4.941193-1.105267 7.054203-3.267039 8.143216-17.196652 14.027137-26.542659 6.469062-8.305755-6.95668-7.818138-17.424207-2.551866-25.892501 2.876945-6.306523 5.152494-17.928079 0.422602-22.771748l2.893199-1.885455c3.510848 2.470597 6.79414 5.103732 9.703593 7.639344l93.134987-60.480853 5.168748-24.267109z m-8.159471 64.52808l2.470597-26.932753s4.924939 0.276317 11.702826 0.942728l-5.119987-9.346007-93.801397 60.919709c7.200489 7.688106 10.792606 15.164911 11.670317 21.877782l73.077644-47.461459z" p-id="4712" fill="#ffffff"></path><path d="M371.64139 594.863888l23.243111 35.271016c16.253924-4.22602 22.527939-4.811162 26.428881 1.219044 9.557308 14.709802 4.924939 31.955215-47.21765 65.828394l-63.715384 41.382492c-40.114685 26.038787-66.511059 27.339101-88.372586-6.306523L151.693285 623.990921l42.260203-22.706733c1.446599 3.185769 1.414091 6.062714-3.364562 10.418766l17.668016 27.192815 90.908199-59.034253-40.228463-61.943706-132.794563 86.243323-6.062713-4.941193 132.355706-85.950752 4.291036-26.558913 45.868575 3.803419c-0.260063 3.006976-1.934217 7.265504-6.339031 11.702825l46.600001 71.761076c1.089013 2.145518-10.467527 19.472201-22.056575 26.981515l-5.575096 3.624625-12.01165-18.480712-90.908199 59.034253 43.121661 66.397281c6.225253 9.589815 14.856087 8.728357 34.019464-3.722148l62.382562-40.50478c14.482247-9.427276 21.341403-15.441228 22.983049-24.120824 1.007743-9.199721-1.771678-29.582142-5.396303-46.860064l2.226788-1.462853z" p-id="4713" fill="#ffffff"></path><path d="M875.675585 59.394603l155.663834 249.806564c13.181933 22.007814 6.859156 51.037323-14.254692 64.44681L240.423458 873.781231c-21.097594 13.425742-49.590723 6.989187-63.309036-14.514755l-155.64758-249.79031c-13.718312-21.487688-7.395536-50.500943 14.238438-64.463064L812.366549 44.896102c21.113848-13.978375 49.606977-7.525567 63.32529 14.498501zM223.551884 846.913494l776.66127-500.133254a14.384723 14.384723 0 0 0 4.22602-20.398675L848.77534 76.591255a14.417231 14.417231 0 0 0-20.041089-4.84367L52.576854 572.417219a14.986118 14.986118 0 0 0-4.746146 20.414929l155.64758 249.25393c4.22602 6.989187 13.181933 9.134706 20.041089 4.827416z" p-id="4714" fill="#ffffff"></path><path d="M343.310799 220.015884l-12.661807-31.695153-32.71915-6.989187 25.339869-22.007814-3.705895-33.856924L348.073199 143.199837l30.60614-13.978375L370.747424 162.542007l22.690478 25.242345-33.239275 2.681897-16.887828 29.549635zM512.676691 64.774652l15.831323 30.06976 33.239275 3.234531-23.210604 24.705965 6.859156 33.320545-30.06976-14.514754-29.029509 17.196652 4.226021-33.856925-24.803489-22.560447 33.239275-6.436554 13.718312-31.158773zM803.394383 576.171875l26.380119 20.967563 33.239276-10.223719-11.605302 31.695153 19.537217 27.940496-33.775655-1.072759-20.057343 27.387862-9.492291-32.767911-32.182771-10.72759 27.95675-19.34217v-33.856925zM708.959082 700.806967l12.661808 31.695153 32.719149 8.045692-25.339868 22.024068 3.169516 33.856925-28.49313-18.269411-30.60614 13.425741 7.915662-33.304291-22.154099-25.242345 33.239275-2.698151 16.887827-29.533381zM539.056811 854.959186l-15.831323-30.06976-32.702895-4.291036 23.210604-24.705965-6.859157-33.320545 30.069761 15.051134 29.029509-16.660272-4.746146 33.84067 24.787234 23.113081-33.239275 5.900174-13.718312 31.158773zM252.02876 341.416445l-26.380119-20.951308s-31.012488 9.849878-31.646391 10.207464l11.605302-32.215278-19.520963-27.95675 33.759401 2.161772L239.903332 245.274482l8.955913 32.767912 31.662644 10.72759-27.95675 18.80579-0.536379 33.840671z" p-id="4715" fill="#ffffff"></path><path d="M301.635737 98.078943C173.408528 180.811418 104.296841 323.163288 107.986482 467.660676c0 0-31.126265 19.87855-31.126265 19.34217a472.875422 472.875422 0 0 1 10.028671-130.535267 454.410964 454.410964 0 0 1 69.111687-160.084901c34.29578-49.964564 77.563727-92.40356 129.26746-125.155218a439.733671 439.733671 0 0 1 166.212631-65.015698 441.586618 441.586618 0 0 1 171.999028 4.84367 438.335833 438.335833 0 0 1 120.295295 46.730032l-30.60614 19.87855C586.030652 13.20095 429.846693 15.346468 301.619483 98.078943zM748.001009 815.218341c128.210956-82.732475 197.322642-225.084345 193.633001-369.581733l30.60614-18.80579a474.387037 474.387037 0 0 1-10.028672 130.535267 454.410964 454.410964 0 0 1-69.111686 160.101155 450.558784 450.558784 0 0 1-128.731081 125.155218 447.730601 447.730601 0 0 1-166.212631 64.463064 441.570364 441.570364 0 0 1-171.999028-4.84367 438.319579 438.319579 0 0 1-120.311548-46.730032l30.606139-19.87855c127.154451 64.463064 283.33841 62.317546 411.549366-20.414929z" p-id="4716" fill="#ffffff"></path><path d="M508.987051 208.73566c-39.578306 2.681898-79.156612 15.051134-115.029023 38.147961-35.872411 23.080573-63.309036 54.2556-82.829999 89.705409l-47.493967 30.622393a278.901089 278.901089 0 0 1 113.452392-147.195539c53.80049-34.91343 116.605654-49.41193 179.394564-41.902617L508.987051 208.73566zM540.649695 704.561624a242.102204 242.102204 0 0 0 115.012769-38.131707 242.931154 242.931154 0 0 0 82.846253-89.721662l47.477713-30.622394a278.917343 278.917343 0 0 1-113.436138 147.195539c-54.353123 34.91343-116.605654 49.41193-179.394564 41.902617l47.493967-30.622393z" p-id="4717" fill="#ffffff"></path></svg>