<?xml version="1.0" standalone="no"?><!DOCTYPE svg PUBLIC "-//W3C//DTD SVG 1.1//EN" "http://www.w3.org/Graphics/SVG/1.1/DTD/svg11.dtd"><svg class="icon" width="32px" height="32.00px" viewBox="0 0 1024 1024" version="1.1" xmlns="http://www.w3.org/2000/svg"><path d="M512 42.666667A468.010667 468.010667 0 0 0 180.138667 180.138667 468.010667 468.010667 0 0 0 42.666667 512a467.989333 467.989333 0 0 0 137.472 331.861333A468.010667 468.010667 0 0 0 512 981.333333a468.010667 468.010667 0 0 0 331.861333-137.472A468.010667 468.010667 0 0 0 981.333333 512a468.010667 468.010667 0 0 0-137.472-331.861333A467.989333 467.989333 0 0 0 512 42.666667z" fill="#262626" /><path d="M583.68 260.096c49.365333-49.386667 129.28-47.445333 178.474667 1.792 49.173333 49.216 51.114667 129.152 1.792 178.538667l-108.202667 108.288a32 32 0 1 1-45.269333-45.226667l108.202666-108.309333c23.210667-23.253333 23.573333-62.677333-1.792-88.064a63.872 63.872 0 0 0-52.906666-18.666667 59.306667 59.306667 0 0 0-34.986667 16.896l-124.629333 124.714667-0.213334 0.213333c-23.04 23.253333-23.296 62.528 1.984 87.850667a32 32 0 1 1-45.269333 45.226666c-49.173333-49.216-51.114667-129.152-1.770667-178.517333l0.256-0.256 124.352-124.48z" fill="#ffffff" /><path d="M368.256 475.306667a32 32 0 0 1 45.269333 45.226666l-108.181333 108.288c-23.253333 23.253333-23.573333 62.677333 1.770667 88.042667 25.344 25.386667 64.704 25.024 87.914666 1.792l124.608-124.714667a32.64 32.64 0 0 1 0.874667-0.853333 34.133333 34.133333 0 0 1 0.917333-0.938667c23.232-23.253333 23.573333-62.677333-1.792-88.064a32 32 0 0 1 45.269334-45.226666c49.173333 49.216 51.114667 129.152 1.792 178.538666a32.64 32.64 0 0 1-0.874667 0.853334 31.36 31.36 0 0 1-0.917333 0.917333l-124.586667 124.736c-49.365333 49.386667-129.28 47.445333-178.474667-1.792-49.173333-49.216-51.114667-129.152-1.770666-178.538667l108.16-108.288z" fill="#ffffff" /></svg>