<svg width="14" height="15" viewBox="0 0 14 15" fill="none" xmlns="http://www.w3.org/2000/svg">
<g id="2. feedback/incorrect">
<path id="&#232;&#183;&#175;&#229;&#190;&#132;" d="M7.00004 1.08301C5.22817 1.08301 3.62342 1.80186 2.46287 2.9624C1.30233 4.12296 0.583374 5.72795 0.583374 7.49967C0.583374 9.2714 1.30233 10.8764 2.46287 12.0369C3.62342 13.1975 5.22817 13.9163 7.00004 13.9163C8.77192 13.9163 10.3767 13.1975 11.5372 12.0369C12.6978 10.8764 13.4167 9.2714 13.4167 7.49967C13.4167 5.72795 12.6978 4.12296 11.5372 2.96241C10.3767 1.80186 8.77192 1.08301 7.00004 1.08301Z" fill="#BFBFBF"/>
<path id="&#232;&#183;&#175;&#229;&#190;&#132;_2" d="M4.375 4.0498L3.55017 4.87475L6.17517 7.49975L3.55017 10.1248L4.375 10.9497L7 8.3247L9.625 10.9497L10.4498 10.1248L7.82484 7.49975L10.4498 4.87475L9.625 4.0498L7 6.6748L4.375 4.0498Z" fill="white"/>
</g>
</svg>
