<?xml version="1.0" standalone="no"?><!DOCTYPE svg PUBLIC "-//W3C//DTD SVG 1.1//EN" "http://www.w3.org/Graphics/SVG/1.1/DTD/svg11.dtd"><svg class="icon" width="32px" height="32.00px" viewBox="0 0 1024 1024" version="1.1" xmlns="http://www.w3.org/2000/svg"><path d="M512 42.666667A467.968 467.968 0 0 0 180.138667 180.138667 468.010667 468.010667 0 0 0 42.666667 512a468.010667 468.010667 0 0 0 137.472 331.861333A467.968 467.968 0 0 0 512 981.333333a467.968 467.968 0 0 0 331.861333-137.472A468.010667 468.010667 0 0 0 981.333333 512a468.010667 468.010667 0 0 0-137.472-331.861333A467.968 467.968 0 0 0 512 42.666667z" fill="#262626" /><path d="M320 259.669333L259.669333 320l192 192-192 192L320 764.330667l192-192 192 192L764.330667 704l-192-192 192-192L704 259.669333l-192 192-192-192z" fill="#ffffff" /></svg>