<?xml version="1.0" standalone="no"?><!DOCTYPE svg PUBLIC "-//W3C//DTD SVG 1.1//EN" "http://www.w3.org/Graphics/SVG/1.1/DTD/svg11.dtd"><svg t="1720772925532" class="icon" viewBox="0 0 1024 1024" version="1.1" xmlns="http://www.w3.org/2000/svg" p-id="5966" xmlns:xlink="http://www.w3.org/1999/xlink" width="200" height="200"><path d="M512 512m-512 0a512 512 0 1 0 1024 0 512 512 0 1 0-1024 0Z" fill="#E8F3FF" p-id="5967"></path><path d="M288 346.656a96 96 0 0 1 96-96h256a96 96 0 0 1 96 96v330.688a96 96 0 0 1-96 96h-256a96 96 0 0 1-96-96V346.656z" fill="#6AA1FF" p-id="5968"></path><path d="M589.28 585.856a24 24 0 0 1-2.432 33.856c-38.08 32.992-95.776 37.248-142.848 10.08a131.392 131.392 0 0 1-51.744-54.368l-1.984 3.392a24 24 0 0 1-41.568-24l35.36-61.248a24 24 0 0 1 44.352 16.544c-5.312 27.616 8.64 60.224 39.584 78.08 30.944 17.92 66.176 13.664 87.424-4.768a24 24 0 0 1 33.856 2.432zM666.496 436.416a24 24 0 0 1 8.768 32.768l-35.36 61.248a24 24 0 0 1-44.32-16.544c5.312-27.616-8.64-60.224-39.584-78.08-30.976-17.92-66.176-13.664-87.424 4.768a24 24 0 0 1-31.424-36.288c38.048-32.992 95.776-37.248 142.848-10.08a131.392 131.392 0 0 1 51.744 54.368l1.952-3.392a24 24 0 0 1 32.8-8.768z" fill="#FFFFFF" p-id="5969"></path></svg>