<?xml version="1.0" standalone="no"?><!DOCTYPE svg PUBLIC "-//W3C//DTD SVG 1.1//EN" "http://www.w3.org/Graphics/SVG/1.1/DTD/svg11.dtd"><svg t="1736817881328" class="icon" viewBox="0 0 1024 1024" version="1.1" xmlns="http://www.w3.org/2000/svg" p-id="5925" xmlns:xlink="http://www.w3.org/1999/xlink" width="16" height="16"><path d="M512 512m-499.512195 0a499.512195 499.512195 0 1 0 999.02439 0 499.512195 499.512195 0 1 0-999.02439 0Z" fill="#EEF4FF" p-id="5926"></path><path d="M312.694634 465.795122c11.713561 0 21.229268 9.490732 21.229268 21.229268v199.804878c0 15.884488 12.837463 28.721951 28.721952 28.721952h312.195122a16.134244 16.134244 0 0 0 12.088195-5.394732 21.229268 21.229268 0 0 1 31.644097 28.297366c-10.739512 11.988293-26.349268 19.555902-43.757268 19.555902h-312.195122a71.180488 71.180488 0 0 1-71.180488-71.180488v-199.804878c0-11.738537 9.515707-21.229268 21.229269-21.229268z m399.609756 0c11.713561 0 21.229268 9.490732 21.229269 21.229268v24.97561a21.229268 21.229268 0 1 1-42.458537 0v-24.97561c0-11.738537 9.490732-21.229268 21.229268-21.229268z" fill="#2B6CFF" p-id="5927"></path><path d="M290.616195 311.545756a71.180488 71.180488 0 0 1 66.385171-45.555512h310.971317a71.180488 71.180488 0 0 1 66.410146 45.530536l25.150439 65.111415c24.551024 63.537951-22.802732 131.621463-90.611512 131.621464a96.405854 96.405854 0 0 1-75.126634-35.939903 95.981268 95.981268 0 0 1-74.976781 35.964878h-12.737561a95.981268 95.981268 0 0 1-74.951804-35.964878 96.405854 96.405854 0 0 1-75.101659 35.964878c-67.80878 0-115.112585-68.083512-90.586537-131.571512l25.175415-65.186342z m161.792 100.551805a53.697561 53.697561 0 0 0 53.697561 53.697561h12.712585a53.697561 53.697561 0 0 0 53.697561-53.697561 21.229268 21.229268 0 1 1 42.458537 0c0 29.571122 24.201366 53.697561 53.947317 53.697561 38.28761 0 64.686829-38.412488 51.000195-73.852878l-25.150439-65.111415a28.721951 28.721951 0 0 0-26.798829-18.382049h-310.946342a28.721951 28.721951 0 0 0-26.798829 18.382049l-25.175414 65.161366c-13.686634 35.415415 12.712585 73.802927 50.950243 73.802927 29.745951 0 53.947317-24.126439 53.947318-53.697561a21.229268 21.229268 0 1 1 42.458536 0zM360.897561 611.902439c0-11.738537 9.490732-21.229268 21.229268-21.229268h149.853659a21.229268 21.229268 0 1 1 0 42.458536h-149.853659a21.229268 21.229268 0 0 1-21.229268-21.229268z" fill="#2B6CFF" p-id="5928"></path><path d="M447.08839 546.965854a21.229268 21.229268 0 0 1 0 29.995707l-34.940878 34.965854 34.940878 34.915902a21.229268 21.229268 0 1 1-30.020683 30.020683l-49.951219-49.95122a21.229268 21.229268 0 0 1 0-30.020682l49.951219-49.95122a21.229268 21.229268 0 0 1 30.020683 0zM643.121951 568.195122a34.965854 34.965854 0 1 0 0 69.931707 34.965854 34.965854 0 0 0 0-69.931707z m-77.42439 34.965854a77.42439 77.42439 0 1 1 154.84878 0 77.42439 77.42439 0 0 1-154.84878 0z" fill="#2B6CFF" p-id="5929"></path><path d="M673.367415 627.362341a21.229268 21.229268 0 0 1 29.845853-3.321756l46.829269 37.463415a21.229268 21.229268 0 1 1-26.524098 33.16761l-46.829268-37.463415a21.229268 21.229268 0 0 1-3.321756-29.845854z" fill="#2B6CFF" p-id="5930"></path></svg>