<?xml version="1.0" standalone="no"?><!DOCTYPE svg PUBLIC "-//W3C//DTD SVG 1.1//EN" "http://www.w3.org/Graphics/SVG/1.1/DTD/svg11.dtd"><svg t="1736817884336" class="icon" viewBox="0 0 1024 1024" version="1.1" xmlns="http://www.w3.org/2000/svg" p-id="6071" xmlns:xlink="http://www.w3.org/1999/xlink" width="16" height="16"><path d="M512 512m-512 0a512 512 0 1 0 1024 0 512 512 0 1 0-1024 0Z" fill="#FBEDD2" p-id="6072"></path><path d="M324.32 247.04a77.28 77.28 0 0 0-77.28 77.28V364.8a88.32 88.32 0 0 0 176.64 0 88.32 88.32 0 0 0 176.64 0 88.32 88.32 0 0 0 176.64 0v-40.48a77.28 77.28 0 0 0-77.28-77.28h-375.36z" fill="#FA8C16" p-id="6073"></path><path d="M276.48 474.464a111.36 111.36 0 0 0 58.88 16.736A111.68 111.68 0 0 0 423.68 448 111.68 111.68 0 0 0 512 491.2 111.68 111.68 0 0 0 600.32 448a111.68 111.68 0 0 0 88.32 43.2 111.36 111.36 0 0 0 58.88-16.736v243.616a58.592 58.592 0 0 1-22.56 46.336 58.624 58.624 0 0 1-36.32 12.544H335.36a58.784 58.784 0 0 1-58.88-58.88v-243.616z" fill="#FA8C16" p-id="6074"></path><path d="M512 611.2a83.2 83.2 0 1 1 154.016 43.68l32.352 32.32a19.2 19.2 0 0 1-27.168 27.168l-32.32-32.32A83.2 83.2 0 0 1 512 611.2z m83.2-44.8a44.8 44.8 0 1 0 0 89.6 44.8 44.8 0 0 0 0-89.6z" fill="#FFFFFF" p-id="6075"></path><path d="M419.2 579.2a19.2 19.2 0 0 0-38.4 0v25.6h-25.6a19.2 19.2 0 1 0 0 38.4h25.6v25.6a19.2 19.2 0 1 0 38.4 0v-25.6h25.6a19.2 19.2 0 1 0 0-38.4h-25.6v-25.6z" fill="#FFFFFF" p-id="6076"></path></svg>