<?xml version="1.0" standalone="no"?><!DOCTYPE svg PUBLIC "-//W3C//DTD SVG 1.1//EN" "http://www.w3.org/Graphics/SVG/1.1/DTD/svg11.dtd"><svg t="1730875246731" class="icon" viewBox="0 0 1024 1024" version="1.1" xmlns="http://www.w3.org/2000/svg" p-id="4162" xmlns:xlink="http://www.w3.org/1999/xlink" width="32" height="32"><path d="M512 512m-512 0a512 512 0 1 0 1024 0 512 512 0 1 0-1024 0Z" fill="#F9E5E3" p-id="4163"></path><path d="M624 256h-252.8a64 64 0 0 0-64 64v384a64 64 0 0 0 64 64H652.8a64.032 64.032 0 0 0 64.032-64V320a64 64 0 0 0-64-64h-28.8z" fill="#FF4D4F" p-id="4164"></path><path d="M288 320a83.2 83.2 0 0 1 83.2-83.2h281.6A83.2 83.2 0 0 1 736 320v384c0 45.952-37.312 83.2-83.232 83.2H371.2A83.2 83.2 0 0 1 288 704V320z m83.2-44.8a44.8 44.8 0 0 0-44.8 44.8v384a44.8 44.8 0 0 0 44.8 44.8H652.8c24.736 0 44.832-20.064 44.832-44.8V320a44.8 44.8 0 0 0-44.8-44.8h-281.6z" fill="#FF4D4F" p-id="4165"></path><path d="M454.4 588.8a83.2 83.2 0 1 1 154.016 43.68l32.352 32.32a19.2 19.2 0 1 1-27.136 27.2l-32.352-32.384A83.2 83.2 0 0 1 454.4 588.8z m83.2-44.8a44.8 44.8 0 1 0 0 89.6 44.8 44.8 0 0 0 0-89.6zM371.2 345.6a25.6 25.6 0 0 1 25.6-25.6H576a25.6 25.6 0 0 1 0 51.2h-179.2a25.6 25.6 0 0 1-25.6-25.6zM371.2 435.2a25.6 25.6 0 0 1 25.6-25.6h89.6a25.6 25.6 0 1 1 0 51.2h-89.6a25.6 25.6 0 0 1-25.6-25.6z" fill="#FFFFFF" p-id="4166"></path></svg>