<?xml version="1.0" standalone="no"?><!DOCTYPE svg PUBLIC "-//W3C//DTD SVG 1.1//EN" "http://www.w3.org/Graphics/SVG/1.1/DTD/svg11.dtd"><svg t="1721873040575" class="icon" viewBox="0 0 1024 1024" version="1.1" xmlns="http://www.w3.org/2000/svg" p-id="3524" xmlns:xlink="http://www.w3.org/1999/xlink" width="64" height="64"><path d="M106.666667 74.666667A53.333333 53.333333 0 0 0 53.333333 128v128A53.333333 53.333333 0 0 0 106.666667 309.333333h128a53.333333 53.333333 0 0 0 53.333333-53.333333V128A53.333333 53.333333 0 0 0 234.666667 74.666667H106.666667z m10.666666 170.666666v-106.666666h106.666667v106.666666h-106.666667z" fill="#262626" p-id="3525"></path><path d="M394.666667 160h576v64h-576v-64zM970.666667 480h-576v64h576v-64zM970.666667 800h-576v64h576v-64z" fill="#262626" p-id="3526"></path><path d="M106.666667 714.666667A53.333333 53.333333 0 0 0 53.333333 768v128A53.333333 53.333333 0 0 0 106.666667 949.333333h128a53.333333 53.333333 0 0 0 53.333333-53.333333v-128a53.333333 53.333333 0 0 0-53.333333-53.333333H106.666667z m10.666666 170.666666v-106.666666h106.666667v106.666666h-106.666667zM53.333333 448A53.333333 53.333333 0 0 1 106.666667 394.666667h128a53.333333 53.333333 0 0 1 53.333333 53.333333v128a53.333333 53.333333 0 0 1-53.333333 53.333333H106.666667A53.333333 53.333333 0 0 1 53.333333 576v-128z m64 10.666667v106.666666h106.666667v-106.666666h-106.666667z" fill="#262626" p-id="3527"></path></svg>