<?xml version="1.0" standalone="no"?><!DOCTYPE svg PUBLIC "-//W3C//DTD SVG 1.1//EN" "http://www.w3.org/Graphics/SVG/1.1/DTD/svg11.dtd"><svg t="1721696671414" class="icon" viewBox="0 0 1024 1024" version="1.1" xmlns="http://www.w3.org/2000/svg" p-id="3524" xmlns:xlink="http://www.w3.org/1999/xlink" width="64" height="64"><path d="M544 85.333333v86.826667c162.986667 15.146667 292.693333 144.853333 307.84 307.84H938.666667v64h-86.826667c-15.146667 162.986667-144.853333 292.693333-307.84 307.84V938.666667h-64v-86.826667c-162.986667-15.146667-292.693333-144.853333-307.84-307.84H85.333333v-64h86.826667c15.146667-162.986667 144.853333-292.693333 307.84-307.84V85.333333h64zM512 234.666667c-153.173333 0-277.333333 124.16-277.333333 277.333333s124.16 277.333333 277.333333 277.333333 277.333333-124.16 277.333333-277.333333-124.16-277.333333-277.333333-277.333333z m0 149.333333a128 128 0 1 1 0 256 128 128 0 0 1 0-256z" fill="#262626" p-id="3525"></path></svg>