<?xml version="1.0" standalone="no"?><!DOCTYPE svg PUBLIC "-//W3C//DTD SVG 1.1//EN" "http://www.w3.org/Graphics/SVG/1.1/DTD/svg11.dtd"><svg t="1720771839648" class="icon" viewBox="0 0 1024 1024" version="1.1" xmlns="http://www.w3.org/2000/svg" p-id="5246" xmlns:xlink="http://www.w3.org/1999/xlink" width="200" height="200"><path d="M512 512m-512 0a512 512 0 1 0 1024 0 512 512 0 1 0-1024 0Z" fill="#DBF9F5" p-id="5247"></path><path d="M512 200c-134.08 0-240 111.968-240 246.624 0 104 62.88 193.92 153.152 229.952l2.88 1.152a32 32 0 0 0 11.84 2.272h144.256a32 32 0 0 0 11.84-2.272l2.88-1.152c90.272-36 153.152-125.92 153.152-229.952 0-134.656-105.92-246.624-240-246.624zM427.264 696a32 32 0 0 0-30.976 40.128l12.832 48.832c4.64 17.664 17.088 26.56 21.728 29.536 5.76 3.712 11.296 5.632 14.816 6.656 7.328 2.144 14.656 2.848 20.96 2.848h90.752c6.304 0 13.632-0.704 20.96-2.88 3.52-0.992 9.024-2.912 14.816-6.624 4.64-2.944 17.088-11.872 21.728-29.536l12.8-48.832a32 32 0 0 0-30.944-40.128h-169.472z" fill="#37D4CF" p-id="5248"></path><path d="M416 390.4a25.6 25.6 0 0 1 25.6 25.6v54.592l58.944-29.472a25.6 25.6 0 0 1 22.88 0l58.944 29.44V416a25.6 25.6 0 0 1 51.2 0v96a25.6 25.6 0 0 1-37.024 22.912l-84.576-42.304-84.544 42.304A25.6 25.6 0 0 1 390.4 512v-96a25.6 25.6 0 0 1 25.6-25.6z" fill="#FFFFFF" p-id="5249"></path></svg>