<?xml version="1.0" standalone="no"?><!DOCTYPE svg PUBLIC "-//W3C//DTD SVG 1.1//EN" "http://www.w3.org/Graphics/SVG/1.1/DTD/svg11.dtd"><svg t="1721696676358" class="icon" viewBox="0 0 1024 1024" version="1.1" xmlns="http://www.w3.org/2000/svg" p-id="3673" xmlns:xlink="http://www.w3.org/1999/xlink" width="64" height="64"><path d="M192 245.333333v64H164.266667a25.6 25.6 0 0 0-25.6 25.6v398.485334l160-160L343.936 618.666667 138.666667 823.914667V902.4a25.6 25.6 0 0 0 25.6 25.6h291.818666l-117.333333-117.333333L384 765.418667l96 96 405.333333-405.333334V334.933333a25.6 25.6 0 0 0-25.6-25.6H832v-64h27.733333a89.6 89.6 0 0 1 89.6 89.6v567.466667a89.6 89.6 0 0 1-89.6 89.6H164.266667a89.6 89.6 0 0 1-89.6-89.6V334.933333a89.6 89.6 0 0 1 89.6-89.6H192z m693.333333 301.248L525.248 906.666667l21.333333 21.333333H859.733333a25.6 25.6 0 0 0 25.6-25.6V546.581333zM512 32c123.733333 0 224 100.266667 224 224 0 44.672-20.138667 90.133333-52.565333 144.149333-22.613333 37.674667-52.970667 82.282667-90.56 136.618667l-54.549334 78.741333L512 653.653333l-101.226667-146.389333c-28.352-41.28-51.84-76.48-70.208-107.093333C308.138667 346.133333 288 300.672 288 256c0-123.733333 100.266667-224 224-224z m0 64a160 160 0 0 0-160 160c0 24.96 10.88 55.893333 39.594667 104.746667l3.84 6.485333c25.664 42.752 61.909333 95.04 109.653333 163.925333l6.912 9.941334 34.176-49.344c34.56-50.026667 61.866667-90.325333 82.389333-124.522667C660.138667 314.581333 672 282.026667 672 256A160 160 0 0 0 512 96z m0 85.333333a74.666667 74.666667 0 1 1 0 149.333334 74.666667 74.666667 0 0 1 0-149.333334z" fill="#262626" p-id="3674"></path></svg>