<?xml version="1.0" standalone="no"?><!DOCTYPE svg PUBLIC "-//W3C//DTD SVG 1.1//EN" "http://www.w3.org/Graphics/SVG/1.1/DTD/svg11.dtd"><svg class="icon" width="32px" height="32.00px" viewBox="0 0 1024 1024" version="1.1" xmlns="http://www.w3.org/2000/svg"><path fill="#8a8a8a" d="M518.549333 53.333333c250.453333 0 454.549333 199.253333 454.549334 446.378667l-0.96 29.290667a439.381333 439.381333 0 0 1-88.853334 237.12l81.045334 42.944a32 32 0 0 1 2.688 54.954666c-101.568 67.349333-224 106.645333-355.669334 106.645334-103.189333 0-200.746667-24.149333-286.997333-67.029334l-17.664-8.96C162.688 820.010667 64 671.402667 64 499.712 64 252.608 268.096 53.333333 518.549333 53.333333z m0 64C302.293333 117.333333 128 289.130667 128 499.712c0 146.24 83.925333 273.6 207.786667 337.962667l7.509333 3.797333A578.944 578.944 0 0 0 611.349333 906.666667c98.837333 0 191.744-24.533333 272.768-67.669334l-65.6-34.773333a32 32 0 0 1-8.64-49.856c61.781333-67.690667 99.221333-156.885333 99.221334-254.634667 0-210.624-174.250667-382.4-390.549334-382.4zM746.666667 586.666667v64H298.666667v-64h448z m0-213.333334v64H298.666667v-64h448z"  /></svg>