<?xml version="1.0" standalone="no"?><!DOCTYPE svg PUBLIC "-//W3C//DTD SVG 1.1//EN" "http://www.w3.org/Graphics/SVG/1.1/DTD/svg11.dtd"><svg t="1724289947100" class="icon" viewBox="0 0 1024 1024" version="1.1" xmlns="http://www.w3.org/2000/svg" p-id="4221" xmlns:xlink="http://www.w3.org/1999/xlink" width="16" height="16"><path d="M836.117333 96.170667a32 32 0 0 1 29.845334 20.48l64.042666 165.802666c25.877333 67.008 3.733333 137.066667-44.714666 179.413334v434.304a32 32 0 0 1-32 32h-682.666667a32 32 0 0 1-32-32V461.888c-48.426667-42.304-70.592-112.362667-44.714667-179.328l64.064-165.909333a32 32 0 0 1 29.845334-20.48h648.298666z m-185.28 341.248a159.765333 159.765333 0 0 1-128.064 64.085333h-21.738666a159.765333 159.765333 0 0 1-128.064-64.064 160.448 160.448 0 0 1-128.32 64.064c-14.656 0-28.714667-1.92-42.026667-5.461333v368.128h618.666667V496.021333a162.709333 162.709333 0 0 1-42.112 5.482667 160.490667 160.490667 0 0 1-128.341334-64.064z" fill="#2B6CFF" p-id="4222"></path></svg>