<?xml version="1.0" standalone="no"?><!DOCTYPE svg PUBLIC "-//W3C//DTD SVG 1.1//EN" "http://www.w3.org/Graphics/SVG/1.1/DTD/svg11.dtd"><svg t="1725243407145" class="icon" viewBox="0 0 1024 1024" version="1.1" xmlns="http://www.w3.org/2000/svg" p-id="3591" xmlns:xlink="http://www.w3.org/1999/xlink" width="16" height="16"><path d="M836.117333 96a32 32 0 0 1 29.845334 20.48l64.042666 165.802667c25.877333 66.986667 3.733333 137.066667-44.714666 179.392V896a32 32 0 0 1-32 32h-682.666667a32 32 0 0 1-32-32V461.696c-48.426667-42.304-70.592-112.341333-44.714667-179.328L157.973333 116.48a32 32 0 0 1 29.845334-20.48h648.298666z m-185.28 341.248a159.765333 159.765333 0 0 1-128.064 64.085333h-21.738666a159.765333 159.765333 0 0 1-128.064-64.085333 160.448 160.448 0 0 1-128.32 64.085333c-14.656 0-28.714667-1.92-42.026667-5.461333V864h618.666667V495.850667a162.709333 162.709333 0 0 1-42.112 5.482666 160.490667 160.490667 0 0 1-128.341334-64.085333zM814.165333 160H209.770667L153.6 305.429333C129.152 368.746667 176.32 437.333333 244.650667 437.333333c53.141333 0 96.384-43.093333 96.384-96a32 32 0 0 1 64 0 96 96 0 0 0 96 96h21.738666a96 96 0 0 0 96-96 32 32 0 0 1 64 0c0 52.885333 43.264 96 96.426667 96 68.373333 0 115.584-68.629333 91.093333-131.989333L814.186667 160z" fill="#8C8C8C" p-id="3592"></path></svg>