<?xml version="1.0" standalone="no"?><!DOCTYPE svg PUBLIC "-//W3C//DTD SVG 1.1//EN" "http://www.w3.org/Graphics/SVG/1.1/DTD/svg11.dtd"><svg class="icon" width="32px" height="12.00px" viewBox="0 0 2731 1024" version="1.1" xmlns="http://www.w3.org/2000/svg"><path fill="#8a8a8a" d="M85.66146 1.251263c13.877643 0 27.015904 3.298784 38.959776 9.839476 11.60262 6.370066 21.271469 15.015155 29.006549 26.16277l428.102539 642.352872V82.924605c0-19.622077 6.199439-37.253509 18.200187-51.870535l5.460056-6.028812A79.057065 79.057065 0 0 1 662.948661 1.251263c22.352105 0 42.031058 8.076333 57.614969 23.773995 15.583911 15.640786 23.603368 35.43349 23.603368 57.899347v859.276358c0 22.465857-8.019458 42.201685-23.603368 57.899347a79.057065 79.057065 0 0 1-57.614969 23.773995h-4.436296c-13.877643 0-27.015904-3.298784-38.959777-9.839476a84.175868 84.175868 0 0 1-29.006549-26.16277L162.443501 345.462311v596.738652c0 19.622077-6.199439 37.253509-18.200187 51.870535l-5.460057 6.028812A79.057065 79.057065 0 0 1 81.225164 1023.874305a79.057065 79.057065 0 0 1-57.614969-23.773995A79.967074 79.967074 0 0 1 0.006827 942.200963V82.924605C0.006827 60.458748 8.026284 40.666044 23.610195 25.025258A79.057065 79.057065 0 0 1 81.225164 1.251263h4.436296zM2193.698191 0.113751c20.190833 0 38.334145 6.654444 53.3493 19.622077 15.356408 13.195136 24.399627 30.314688 25.878392 46.296728l153.450332 562.6133 144.691491-560.907033c3.753789-15.07203 11.431993-28.09654 22.693359-38.675398l5.915061-5.061928c14.503275-11.318242 31.281572-17.176427 49.595512-17.176427 13.081385 0 25.480263 3.071282 36.969131 9.100094 11.204491 5.971937 20.532087 13.991394 27.755286 24.001498 6.82507 9.498223 11.60262 20.133958 14.218896 31.736577 2.730028 12.228251 2.502526 24.911507-0.739382 37.87914L2507.480801 963.017428c-4.37942 17.631432-14.105145 32.419084-28.60842 43.794201-14.446399 11.261366-31.281572 17.119551-49.595511 17.119552l-8.929467-0.341254a76.440788 76.440788 0 0 1-41.63293-17.119551 86.962771 86.962771 0 0 1-28.665295-42.884193L2193.527564 389.313388l-157.659125 575.069054c-4.322545 13.991394-11.716371 26.16277-21.897101 36.229748l-6.483817 5.80131a78.374558 78.374558 0 0 1-50.562396 17.460805c-18.313939 0-35.149112-5.80131-49.652387-17.176427-14.446399-11.375117-24.172124-26.16277-28.437793-43.452948L1656.451403 109.314877a80.820208 80.820208 0 0 1-0.682507-37.651638c2.616277-11.60262 7.393826-22.181479 14.218896-31.736577 7.166324-10.010103 16.49392-18.029561 27.812162-24.001498 11.431993-6.028812 23.887746-9.100094 36.85538-9.100094 18.313939 0 35.149112 5.858185 49.652387 17.176427 14.503275 11.375117 24.229 26.16277 28.494668 43.452948l146.90964 563.125181 153.962212-560.565779c1.876894-17.062676 8.815716-32.134706 20.418336-44.362958l6.142563-5.915061c15.07203-12.967634 33.215342-19.622077 53.3493-19.622077zM1505.33297 20.304584c22.29523 0 41.974183 8.133209 57.558093 23.773995 15.583911 15.697662 23.660244 35.490366 23.660244 57.956223 0 22.408981-8.076333 42.258561-23.660244 57.899347a79.057065 79.057065 0 0 1-57.558093 23.773995h-407.968581v231.938641l385.616475 0.056875c19.508326 0 37.026007 6.199439 51.529282 18.200188l6.028812 5.573808c15.583911 15.640786 23.660244 35.490366 23.660244 57.899346 0 22.465857-8.076333 42.258561-23.660244 57.956223-15.583911 15.640786-35.262864 23.773995-57.558094 23.773995h-385.616475v261.172692h407.968581c19.508326 0 36.969131 6.199439 51.529281 18.200188l6.028812 5.573807c15.583911 15.697662 23.660244 35.43349 23.660244 57.899347s-8.076333 42.258561-23.660244 57.956223a79.057065 79.057065 0 0 1-57.558093 23.773995h-433.278217c-39.244155 0-72.573248-13.081385-98.337889-38.959777-25.764641-25.878392-38.675399-59.378112-38.675398-98.96352V158.227881c0-39.585408 12.910758-73.085128 38.675398-98.96352 25.764641-25.935267 59.036859-38.959777 98.394765-38.959777h433.221341z"  /></svg>