<?xml version="1.0" standalone="no"?><!DOCTYPE svg PUBLIC "-//W3C//DTD SVG 1.1//EN" "http://www.w3.org/Graphics/SVG/1.1/DTD/svg11.dtd"><svg class="icon" width="32px" height="32.00px" viewBox="0 0 1024 1024" version="1.1" xmlns="http://www.w3.org/2000/svg"><path fill="#8a8a8a" d="M874.666667 128a85.333333 85.333333 0 0 1 85.333333 85.333333v597.333334a85.333333 85.333333 0 0 1-85.333333 85.333333H149.333333a85.333333 85.333333 0 0 1-85.333333-85.333333V213.333333a85.333333 85.333333 0 0 1 85.333333-85.333333h725.333334zM560.810667 506.410667L432.213333 656.426667l-109.056-87.253334L149.333333 742.997333V810.666667h725.333334v-64.256l-313.856-240zM874.666667 213.333333H149.333333v409.002667l167.509334-167.509333 104.277333 83.413333 127.402667-148.650667L874.666667 638.976V213.333333z m-565.333334 64a74.666667 74.666667 0 1 1 0 149.333334 74.666667 74.666667 0 0 1 0-149.333334z m0 64a10.666667 10.666667 0 1 0 0 21.333334 10.666667 10.666667 0 0 0 0-21.333334z"  /></svg>