<?xml version="1.0" standalone="no"?><!DOCTYPE svg PUBLIC "-//W3C//DTD SVG 1.1//EN" "http://www.w3.org/Graphics/SVG/1.1/DTD/svg11.dtd"><svg class="icon" width="32px" height="32.00px" viewBox="0 0 1024 1024" version="1.1" xmlns="http://www.w3.org/2000/svg"><path fill="#8a8a8a" d="M725.333333 608H298.666667v-64h426.666666v64zM298.666667 394.666667h426.666666v-64H298.666667v64z"  /><path fill="#8a8a8a" d="M53.333333 149.333333A32 32 0 0 1 85.333333 117.333333h853.333334A32 32 0 0 1 970.666667 149.333333v640a32 32 0 0 1-32 32H631.914667l-97.28 97.28a32 32 0 0 1-45.269334 0l-97.28-97.28H85.333333A32 32 0 0 1 53.333333 789.333333V149.333333z m64 32v576H405.333333a32 32 0 0 1 22.613334 9.386667L512 850.730667l84.053333-84.053334A32 32 0 0 1 618.666667 757.333333h288v-576h-789.333334z"  /></svg>