<?xml version="1.0" standalone="no"?><!DOCTYPE svg PUBLIC "-//W3C//DTD SVG 1.1//EN" "http://www.w3.org/Graphics/SVG/1.1/DTD/svg11.dtd"><svg t="1736817837532" class="icon" viewBox="0 0 1024 1024" version="1.1" xmlns="http://www.w3.org/2000/svg" p-id="5212" xmlns:xlink="http://www.w3.org/1999/xlink" width="16" height="16"><path d="M128 256a128 128 0 0 1 128-128h512a128 128 0 0 1 128 128v384a128 128 0 0 1-128 128H256a128 128 0 0 1-128-128V256z m583.36 116.906667a42.666667 42.666667 0 0 0-57.386667-63.146667L448 497.002667l-77.973333-70.869334a42.666667 42.666667 0 0 0-57.386667 63.146667l106.666667 96.96a42.666667 42.666667 0 0 0 57.386666 0l234.666667-213.333333z" fill="#13C2C2" p-id="5213"></path><path d="M213.333333 874.666667a42.666667 42.666667 0 0 1 42.666667-42.666667h512a42.666667 42.666667 0 1 1 0 85.333333H256a42.666667 42.666667 0 0 1-42.666667-42.666666z" fill="#13C2C2" p-id="5214"></path></svg>