<?xml version="1.0" standalone="no"?><!DOCTYPE svg PUBLIC "-//W3C//DTD SVG 1.1//EN" "http://www.w3.org/Graphics/SVG/1.1/DTD/svg11.dtd"><svg t="1716863700713" class="icon" viewBox="0 0 1024 1024" version="1.1" xmlns="http://www.w3.org/2000/svg" p-id="4064" xmlns:xlink="http://www.w3.org/1999/xlink" width="200" height="200"><path d="M512 981.333333c223.850667 0 405.333333-181.482667 405.333333-405.333333S735.850667 170.666667 512 170.666667 106.666667 352.149333 106.666667 576s181.482667 405.333333 405.333333 405.333333z" fill="#EEF4FF" p-id="4065"></path><path d="M640 42.666667v85.333333h-85.333333v44.885333c203.797333 21.333333 362.666667 193.664 362.666666 403.114667 0 223.850667-181.482667 405.333333-405.333333 405.333333S106.666667 799.850667 106.666667 576c0-209.450667 158.869333-381.802667 362.666666-403.114667V128h-85.333333V42.666667h256z m-128 213.333333c-176.725333 0-320 143.274667-320 320 0 176.725333 143.274667 320 320 320 176.725333 0 320-143.274667 320-320 0-176.725333-143.274667-320-320-320z m42.666667 149.333333v128h128v85.333334H469.333333V405.333333h85.333334z" fill="#2B6CFF" p-id="4066"></path></svg>