<?xml version="1.0" standalone="no"?><!DOCTYPE svg PUBLIC "-//W3C//DTD SVG 1.1//EN" "http://www.w3.org/Graphics/SVG/1.1/DTD/svg11.dtd"><svg t="1726215414130" class="icon" viewBox="0 0 1024 1024" version="1.1" xmlns="http://www.w3.org/2000/svg" p-id="3866" width="32" height="32" xmlns:xlink="http://www.w3.org/1999/xlink"><path d="M512 512m-512 0a512 512 0 1 0 1024 0 512 512 0 1 0-1024 0Z" fill="#FBE2ED" p-id="3867"></path><path d="M512 512m-320 0a320 320 0 1 0 640 0 320 320 0 1 0-640 0Z" fill="#F759AB" p-id="3868"></path><path d="M708.672 409.344a22.368 22.368 0 0 0-8.128-9.76l-0.064-0.032a22.336 22.336 0 0 0-24.32-0.032c-17.152 10.592-31.104 13.632-45.024 12.672-14.368-1.024-29.088-6.272-48.096-13.28a341.44 341.44 0 0 0-79.168-19.52h-0.096a256.448 256.448 0 0 0-110.944 12.448 22.368 22.368 0 0 0-14.304 27.52l88.64 274.912a22.368 22.368 0 0 0 21.696 15.68 22.272 22.272 0 0 0 6.08-0.128l0.512-0.064 0.48-0.16a22.368 22.368 0 0 0 14.528-28.16l-34.496-106.144c14.496-17.12 27.52-26.048 40.32-31.04 13.536-5.376 27.232-6.56 43.52-7.84a211.36 211.36 0 0 0 71.456-15.296l0.32-0.128a142.208 142.208 0 0 0 78.528-98.752l0.064-0.288a22.336 22.336 0 0 0-1.504-12.608z m-140.256 32.192c24.192 8.416 48.96 17.024 76.544 14.688a86.816 86.816 0 0 1-31.2 23.552c-18.144 7.232-37.44 11.2-56.96 11.776a143.456 143.456 0 0 0-96.192 35.616l-31.68-99.264a221.344 221.344 0 0 1 70.08-4.032c23.616 3.072 46.752 8.96 68.96 17.504l0.448 0.16z" fill="#FFFFFF" p-id="3869"></path></svg>