<?xml version="1.0" standalone="no"?><!DOCTYPE svg PUBLIC "-//W3C//DTD SVG 1.1//EN" "http://www.w3.org/Graphics/SVG/1.1/DTD/svg11.dtd"><svg t="1729240199145" class="icon" viewBox="0 0 1024 1024" version="1.1" xmlns="http://www.w3.org/2000/svg" p-id="4244" width="32" height="32" xmlns:xlink="http://www.w3.org/1999/xlink"><path d="M613.482667 85.333333H213.333333a42.666667 42.666667 0 0 0-42.666666 42.666667v768a42.666667 42.666667 0 0 0 42.666666 42.666667h597.333334a42.666667 42.666667 0 0 0 42.666666-42.666667V325.184a64 64 0 0 0-18.752-45.269333L658.773333 104.106667A64 64 0 0 0 613.482667 85.333333z" fill="#FFEFEE" p-id="4245"></path><path d="M613.482667 64a85.333333 85.333333 0 0 1 60.352 25.002667l175.829333 175.829333A85.333333 85.333333 0 0 1 874.666667 325.184V405.333333h21.333333a42.666667 42.666667 0 0 1 42.666667 42.666667v298.666667a42.666667 42.666667 0 0 1-42.666667 42.666666h-21.333333v106.666667a64 64 0 0 1-64 64H213.333333a64 64 0 0 1-64-64v-106.666667H128a42.666667 42.666667 0 0 1-42.666667-42.666666V448a42.666667 42.666667 0 0 1 42.666667-42.666667h21.333333V128a64 64 0 0 1 64-64h400.149334zM832 789.333333H192v106.666667a21.333333 21.333333 0 0 0 21.333333 21.333333h597.333334a21.333333 21.333333 0 0 0 21.333333-21.333333v-106.666667zM613.482667 106.666667H213.333333a21.333333 21.333333 0 0 0-21.333333 21.333333v277.333333h640v-80.149333a42.666667 42.666667 0 0 0-12.501333-30.186667l-175.829334-175.829333A42.666667 42.666667 0 0 0 613.482667 106.666667zM458.666667 224v64h-149.333334v-64h149.333334z" fill="#FFA19E" p-id="4246"></path><path d="M378.453333 527.509333c11.52 0 21.589333 2.282667 30.229334 6.826667 8.618667 4.544 15.36 10.922667 20.138666 19.157333 4.8 8.234667 7.210667 17.856 7.210667 28.864 0 11.114667-2.474667 20.736-7.424 28.864-4.906667 8.128-11.797333 14.4-20.693333 18.794667-8.832 4.394667-19.157333 6.592-30.976 6.592h-23.338667V682.666667h-42.112v-155.157334h66.965333z m-10.005333 33.642667h-14.848v42.730667h14.848c4.949333 0 9.173333-0.853333 12.650667-2.56a18.837333 18.837333 0 0 0 8.106666-7.530667c1.92-3.221333 2.88-7.04 2.88-11.434667 0-4.437333-0.96-8.234667-2.88-11.349333a18.069333 18.069333 0 0 0-8.106666-7.274667 28.394667 28.394667 0 0 0-12.650667-2.581333z m142.122667-33.642667c15.957333 0 29.738667 3.114667 41.365333 9.322667 11.669333 6.165333 20.650667 15.061333 26.965333 26.666667 6.357333 11.562667 9.557333 25.429333 9.557334 41.6 0 16.149333-3.157333 30.037333-9.472 41.664a64.981333 64.981333 0 0 1-26.837334 26.666666c-11.562667 6.165333-25.216 9.237333-40.96 9.237334h-59.712v-155.157334h59.093334z m-2.133334 35.754667h-14.826666v83.626667h16.042666c7.68 0 14.229333-1.216 19.626667-3.690667 5.461333-2.474667 9.6-6.741333 12.416-12.8 2.88-6.058667 4.330667-14.506667 4.330667-25.301333 0-10.816-1.472-19.242667-4.394667-25.301334a25.173333 25.173333 0 0 0-12.736-12.8c-5.546667-2.496-12.373333-3.733333-20.458667-3.733333zM607.957333 682.666667v-155.157334h109.098667v33.941334h-66.986667v26.666666h60.309334v33.941334h-60.309334V682.666667h-42.112z" fill="#FFFFFF" p-id="4247"></path></svg>