<?xml version="1.0" standalone="no"?><!DOCTYPE svg PUBLIC "-//W3C//DTD SVG 1.1//EN" "http://www.w3.org/Graphics/SVG/1.1/DTD/svg11.dtd"><svg class="icon" width="32px" height="32.00px" viewBox="0 0 1024 1024" version="1.1" xmlns="http://www.w3.org/2000/svg"><path fill="#8a8a8a" d="M394.666667 736v64h234.666666v-64h-234.666666zM282.24 53.333333C228.821333 53.333333 181.333333 94.122667 181.333333 149.333333v725.333334c0 55.210667 47.466667 96 100.906667 96h459.52c53.44 0 100.906667-40.789333 100.906667-96V149.333333c0-55.210667-47.466667-96-100.906667-96H282.24zM245.333333 149.333333c0-15.488 14.250667-32 36.906667-32h459.52c22.656 0 36.906667 16.512 36.906667 32v725.333334c0 15.488-14.250667 32-36.906667 32H282.24c-22.656 0-36.906667-16.512-36.906667-32V149.333333z" /></svg>