<?xml version="1.0" standalone="no"?><!DOCTYPE svg PUBLIC "-//W3C//DTD SVG 1.1//EN" "http://www.w3.org/Graphics/SVG/1.1/DTD/svg11.dtd"><svg class="icon" width="32px" height="32.00px" viewBox="0 0 1024 1024" version="1.1" xmlns="http://www.w3.org/2000/svg"><path fill="#000000" d="M768 53.333333A74.666667 74.666667 0 0 1 842.666667 128v266.666667H896a74.666667 74.666667 0 0 1 74.666667 74.666666v298.666667a74.666667 74.666667 0 0 1-74.666667 74.666667h-74.666667V896a74.666667 74.666667 0 0 1-70.570666 74.56L746.666667 970.666667H277.333333A74.666667 74.666667 0 0 1 202.666667 896v-53.333333H128a74.666667 74.666667 0 0 1-74.56-70.570667L53.333333 768V469.333333A74.666667 74.666667 0 0 1 128 394.666667h53.333333V128a74.666667 74.666667 0 0 1 70.570667-74.56L256 53.333333h512z m-21.333333 661.333334H277.333333a10.666667 10.666667 0 0 0-10.666666 10.666666v170.666667a10.666667 10.666667 0 0 0 10.666666 10.666667h469.333334a10.666667 10.666667 0 0 0 10.666666-10.666667v-170.666667a10.666667 10.666667 0 0 0-10.666666-10.666666z m149.333333-256H128a10.666667 10.666667 0 0 0-10.666667 10.666666v298.666667a10.666667 10.666667 0 0 0 10.666667 10.666667h74.24V725.333333a74.666667 74.666667 0 0 1 70.570667-74.56l4.096-0.106666h470.122666a74.666667 74.666667 0 0 1 74.666667 74.666666v53.333334H896a10.666667 10.666667 0 0 0 10.496-8.746667L906.666667 768V469.333333a10.666667 10.666667 0 0 0-10.666667-10.666666z m-128-341.333334H256a10.666667 10.666667 0 0 0-10.666667 10.666667v266.666667h533.333334V128a10.666667 10.666667 0 0 0-8.746667-10.496L768 117.333333z" /></svg>