<?xml version="1.0" standalone="no"?><!DOCTYPE svg PUBLIC "-//W3C//DTD SVG 1.1//EN" "http://www.w3.org/Graphics/SVG/1.1/DTD/svg11.dtd"><svg t="1721722339723" class="icon" viewBox="0 0 1024 1024" version="1.1" xmlns="http://www.w3.org/2000/svg" p-id="4190" xmlns:xlink="http://www.w3.org/1999/xlink" width="16" height="16"><path d="M512 42.666667A468.010667 468.010667 0 0 0 180.138667 180.138667 468.010667 468.010667 0 0 0 42.666667 512a467.989333 467.989333 0 0 0 137.472 331.861333A468.010667 468.010667 0 0 0 512 981.333333a468.010667 468.010667 0 0 0 331.861333-137.472A468.010667 468.010667 0 0 0 981.333333 512a468.010667 468.010667 0 0 0-137.472-331.861333A467.989333 467.989333 0 0 0 512 42.666667z" fill="#262626" p-id="4191"></path><path d="M785.664 382.528L471.786667 712.085333a42.666667 42.666667 0 0 1-61.802667 0l-171.648-180.224 61.802667-58.858666 140.757333 147.797333L723.84 323.669333l61.802667 58.858667z" fill="#ffffff" p-id="4192"></path></svg>