<?xml version="1.0" standalone="no"?><!DOCTYPE svg PUBLIC "-//W3C//DTD SVG 1.1//EN" "http://www.w3.org/Graphics/SVG/1.1/DTD/svg11.dtd"><svg class="icon" width="32px" height="32.00px" viewBox="0 0 1024 1024" version="1.1" xmlns="http://www.w3.org/2000/svg"><path d="M512 512m-512 0a512 512 0 1 0 1024 0 512 512 0 1 0-1024 0Z" fill="#EEF4FF" /><path d="M504.753231 237.357949c4.804923-1.39159 9.924923-1.39159 14.70359 0l236.202666 69.001846a26.25641 26.25641 0 0 1 18.904616 25.206154v141.495795c0 160.032821-102.4 302.08-254.240821 352.676102a26.361436 26.361436 0 0 1-3.255795 0.866462l-3.36082 0.420102h-3.360821a26.361436 26.361436 0 0 1-6.616615-1.286564A371.790769 371.790769 0 0 1 249.435897 472.982974v-141.417025a26.25641 26.25641 0 0 1 18.904616-25.206154l236.412718-69.001846z m7.351795 52.565333L301.948718 351.258256v121.724718a319.277949 319.277949 0 0 0 210.077538 300.032l7.666872-2.888205A319.199179 319.199179 0 0 0 722.051282 473.061744v-121.829744l-209.946256-61.308718z m149.740307 137.87241a26.25641 26.25641 0 0 1 0 37.126564l-157.538461 157.538462a26.125128 26.125128 0 0 1-13.915898 7.299282l-3.098256 0.36759h-3.098256a26.151385 26.151385 0 0 1-17.014154-7.666872l-91.897436-91.897436a26.25641 26.25641 0 0 1 20.11241-44.793436l3.072 0.36759c5.12 0.918974 9.977436 3.360821 13.942154 7.299282l73.334154 73.334154 138.975179-138.97518a26.25641 26.25641 0 0 1 37.126564 0z" fill="#2B6CFF" /></svg>