<?xml version="1.0" standalone="no"?><!DOCTYPE svg PUBLIC "-//W3C//DTD SVG 1.1//EN" "http://www.w3.org/Graphics/SVG/1.1/DTD/svg11.dtd"><svg t="1730707482887" class="icon" viewBox="0 0 1024 1024" version="1.1" xmlns="http://www.w3.org/2000/svg" p-id="4443" xmlns:xlink="http://www.w3.org/1999/xlink" width="32" height="32"><path d="M554.666667 501.333333a138.666667 138.666667 0 1 0 72.789333 256.704L704 834.581333 749.248 789.333333l-76.544-76.544A138.666667 138.666667 0 0 0 554.666667 501.333333zM480 640a74.666667 74.666667 0 1 1 149.333333 0 74.666667 74.666667 0 0 1-149.333333 0z" p-id="4444"></path><path d="M288 202.666667h362.666667v64h-362.666667v-64zM501.333333 330.666667h-213.333333v64h213.333333v-64z" p-id="4445"></path><path d="M213.333333 53.333333A74.666667 74.666667 0 0 0 138.666667 128v768a74.666667 74.666667 0 0 0 74.666666 74.666667h597.333334a74.666667 74.666667 0 0 0 74.666666-74.666667V128A74.666667 74.666667 0 0 0 810.666667 53.333333H213.333333zM202.666667 128a10.666667 10.666667 0 0 1 10.666666-10.666667h597.333334a10.666667 10.666667 0 0 1 10.666666 10.666667v768a10.666667 10.666667 0 0 1-10.666666 10.666667H213.333333a10.666667 10.666667 0 0 1-10.666666-10.666667V128z" p-id="4446"></path></svg>