<?xml version="1.0" standalone="no"?><!DOCTYPE svg PUBLIC "-//W3C//DTD SVG 1.1//EN" "http://www.w3.org/Graphics/SVG/1.1/DTD/svg11.dtd"><svg t="1711440909937" class="icon" viewBox="0 0 1024 1024" version="1.1" xmlns="http://www.w3.org/2000/svg" p-id="2000" xmlns:xlink="http://www.w3.org/1999/xlink" width="16" height="16"><path d="M512 42.666667A468.010667 468.010667 0 0 0 180.138667 180.138667 468.010667 468.010667 0 0 0 42.666667 512a467.989333 467.989333 0 0 0 137.472 331.861333A468.010667 468.010667 0 0 0 512 981.333333a468.010667 468.010667 0 0 0 331.861333-137.472A468.010667 468.010667 0 0 0 981.333333 512a468.010667 468.010667 0 0 0-137.472-331.861333A467.989333 467.989333 0 0 0 512 42.666667z" fill="#262626" p-id="2001"></path><path d="M341.333333 397.333333a170.666667 170.666667 0 1 1 213.333334 165.290667V640h-85.333334v-114.666667a42.666667 42.666667 0 0 1 42.666667-42.666666 85.333333 85.333333 0 1 0-85.333333-85.333334h-85.333334zM512 802.666667a53.333333 53.333333 0 1 0 0-106.666667 53.333333 53.333333 0 0 0 0 106.666667z" fill="#FFFFFF" p-id="2002"></path></svg>