<?xml version="1.0" standalone="no"?><!DOCTYPE svg PUBLIC "-//W3C//DTD SVG 1.1//EN" "http://www.w3.org/Graphics/SVG/1.1/DTD/svg11.dtd"><svg t="1730707472949" class="icon" viewBox="0 0 1024 1024" version="1.1" xmlns="http://www.w3.org/2000/svg" p-id="4129" xmlns:xlink="http://www.w3.org/1999/xlink" width="32" height="32"><path d="M160 512c0-194.410667 157.589333-352 352-352 97.216 0 185.173333 39.36 248.896 103.104 15.893333 15.893333 40.874667 42.922667 63.274667 67.562667H672v64H896a32 32 0 0 0 32-32V138.666667h-64v140.672c-20.650667-22.613333-42.773333-46.421333-57.834667-61.504A414.784 414.784 0 0 0 512 96C282.24 96 96 282.24 96 512S282.24 928 512 928a414.784 414.784 0 0 0 294.165333-121.856l22.613334-22.613333-45.248-45.248-22.613334 22.613333A350.805333 350.805333 0 0 1 512 864c-194.410667 0-352-157.589333-352-352z" p-id="4130"></path></svg>