<svg width="15" height="15" viewBox="0 0 15 15" fill="none" xmlns="http://www.w3.org/2000/svg">
<g id="2. feedback/reelection" clip-path="url(#clip0_10396_32305)">
<path id="Union" d="M3.33317 -0.333008C1.86041 -0.333008 0.666504 0.860899 0.666504 2.33366V11.667C0.666504 13.1398 1.86041 14.3337 3.33317 14.3337H12.6665C14.1393 14.3337 15.3332 13.1398 15.3332 11.667V2.33366C15.3332 0.8609 14.1393 -0.333008 12.6665 -0.333008H3.33317Z" fill="#FF8010"/>
<path id="&#232;&#183;&#175;&#229;&#190;&#132;" d="M12.2759 4.97715L7.37165 10.1266C7.24582 10.2587 7.07132 10.3335 6.88889 10.3335C6.70642 10.3335 6.53195 10.2587 6.40612 10.1266L3.72412 7.31048L4.68965 6.39095L6.88889 8.70015L11.3103 4.05762L12.2759 4.97715Z" fill="white"/>
</g>
<defs>
<clipPath id="clip0_10396_32305">
<rect width="16" height="16" fill="white" transform="translate(0 -1)"/>
</clipPath>
</defs>
</svg>
