<?xml version="1.0" standalone="no"?><!DOCTYPE svg PUBLIC "-//W3C//DTD SVG 1.1//EN" "http://www.w3.org/Graphics/SVG/1.1/DTD/svg11.dtd"><svg t="1728443594583" class="icon" viewBox="0 0 1024 1024" version="1.1" xmlns="http://www.w3.org/2000/svg" p-id="4287" xmlns:xlink="http://www.w3.org/1999/xlink" width="16" height="16"><path d="M213.333333 42.666667a170.666667 170.666667 0 0 0-170.666666 170.666666v597.333334a170.666667 170.666667 0 0 0 170.666666 170.666666h597.333334a170.666667 170.666667 0 0 0 170.666666-170.666666V213.333333a170.666667 170.666667 0 0 0-170.666666-170.666666H213.333333z" fill="#FFFFFF" p-id="4288"></path><path d="M213.333333 85.333333a128 128 0 0 0-128 128v597.333334a128 128 0 0 0 128 128h597.333334a128 128 0 0 0 128-128V213.333333a128 128 0 0 0-128-128H213.333333z m-170.666666 128a170.666667 170.666667 0 0 1 170.666666-170.666666h597.333334a170.666667 170.666667 0 0 1 170.666666 170.666666v597.333334a170.666667 170.666667 0 0 1-170.666666 170.666666H213.333333a170.666667 170.666667 0 0 1-170.666666-170.666666V213.333333z" fill="#DDDDDD" p-id="4289"></path></svg>