<?xml version="1.0" standalone="no"?><!DOCTYPE svg PUBLIC "-//W3C//DTD SVG 1.1//EN" "http://www.w3.org/Graphics/SVG/1.1/DTD/svg11.dtd"><svg class="icon" width="32px" height="32.00px" viewBox="0 0 1024 1024" version="1.1" xmlns="http://www.w3.org/2000/svg"><path fill="#8a8a8a" d="M138.666667 340.629333V170.666667a32 32 0 0 1 64 0v65.792C277.973333 150.442667 387.562667 96 511.786667 96c163.392 0 304.704 94.186667 372.736 231.082667l14.250666 28.672-57.322666 28.48-14.229334-28.650667C769.6 239.573333 649.962667 160 511.786667 160c-118.698667 0-221.824 58.794667-285.056 149.333333h88.554666a32 32 0 1 1 0 64H171.306667a31.786667 31.786667 0 0 1-18.304-5.333333 31.808 31.808 0 0 1-13.909334-21.44 32 32 0 0 1-0.426666-5.930667z m60.650666 327.808l-14.229333-28.672-57.322667 28.48 14.250667 28.672C210.048 833.813333 351.36 928 514.752 928c124.245333 0 233.856-54.442667 309.141333-140.458667V853.333333a32 32 0 1 0 64 0v-169.984a32.170667 32.170667 0 0 0-14.165333-27.242666 31.829333 31.829333 0 0 0-18.474667-5.44h-144a32 32 0 0 0 0 64h88.554667c-63.232 90.538667-166.357333 149.333333-285.056 149.333333-138.154667 0-257.792-79.573333-315.434667-195.562667z"  /></svg>