<?xml version="1.0" standalone="no"?><!DOCTYPE svg PUBLIC "-//W3C//DTD SVG 1.1//EN" "http://www.w3.org/Graphics/SVG/1.1/DTD/svg11.dtd"><svg t="1721285249530" class="icon" viewBox="0 0 1024 1024" version="1.1" xmlns="http://www.w3.org/2000/svg" p-id="3393" xmlns:xlink="http://www.w3.org/1999/xlink" width="16" height="16"><path d="M896 512c0 212.074667-171.925333 384-384 384S128 724.074667 128 512 299.925333 128 512 128s384 171.925333 384 384z" fill="#EEF4FF" p-id="3394"></path><path d="M512 864c-194.410667 0-352-157.589333-352-352S317.589333 160 512 160c97.216 0 185.173333 39.36 248.896 103.104l22.613333 22.613333 45.269334-45.226666-22.613334-22.656A414.784 414.784 0 0 0 512 96C282.24 96 96 282.24 96 512S282.24 928 512 928a414.805333 414.805333 0 0 0 294.165333-121.834667m0 0c19.52-19.541333 50.773333-53.632 75.264-80.682666l21.482667-23.744-47.466667-42.944-21.461333 23.744c-24.661333 27.242667-54.869333 60.16-73.088 78.357333A350.784 350.784 0 0 1 512 864" fill="#2B6CFF" p-id="3395"></path><path d="M928 821.333333v-192h-192v64h128v128h64zM431.658667 296.362667L512 396.778667l80.341333-100.416 49.962667 39.978666L512 499.2l-130.304-162.88 49.962667-39.978667zM352 565.333333h320v64h-320v-64z" fill="#2B6CFF" p-id="3396"></path><path d="M352 437.333333h320v64h-320v-64z" fill="#2B6CFF" p-id="3397"></path><path d="M544 437.333333v298.666667h-64v-298.666667h64z" fill="#2B6CFF" p-id="3398"></path></svg>