<?xml version="1.0" standalone="no"?><!DOCTYPE svg PUBLIC "-//W3C//DTD SVG 1.1//EN" "http://www.w3.org/Graphics/SVG/1.1/DTD/svg11.dtd"><svg t="1720771878956" class="icon" viewBox="0 0 1024 1024" version="1.1" xmlns="http://www.w3.org/2000/svg" p-id="5534" xmlns:xlink="http://www.w3.org/1999/xlink" width="200" height="200"><path d="M512 512m-512 0a512 512 0 1 0 1024 0 512 512 0 1 0-1024 0Z" fill="#EEDEFA" p-id="5535"></path><path d="M288 346.656a96 96 0 0 1 96-96h256a96 96 0 0 1 96 96v330.688a96 96 0 0 1-96 96h-256a96 96 0 0 1-96-96V346.656z" fill="#A871E3" p-id="5536"></path><path d="M400 360a24 24 0 0 0 0 48h3.2a24 24 0 0 0 0-48h-3.2zM496 360a24 24 0 0 0 0 48h128a24 24 0 0 0 0-48h-128zM496 488a24 24 0 0 0 0 48h128a24 24 0 0 0 0-48h-128zM472 640a24 24 0 0 1 24-24h128a24 24 0 0 1 0 48h-128a24 24 0 0 1-24-24zM376 512a24 24 0 0 1 24-24h3.2a24 24 0 0 1 0 48h-3.2a24 24 0 0 1-24-24zM400 616a24 24 0 0 0 0 48h3.2a24 24 0 0 0 0-48h-3.2z" fill="#FFFFFF" p-id="5537"></path></svg>