<?xml version="1.0" standalone="no"?><!DOCTYPE svg PUBLIC "-//W3C//DTD SVG 1.1//EN" "http://www.w3.org/Graphics/SVG/1.1/DTD/svg11.dtd"><svg t="1723601619976" class="icon" viewBox="0 0 1024 1024" version="1.1" xmlns="http://www.w3.org/2000/svg" p-id="3898" width="32" height="32" xmlns:xlink="http://www.w3.org/1999/xlink"><path d="M469.333333 96.170667c-217.962667 0-394.666667 176.704-394.666666 394.666666 0 217.984 176.704 394.666667 394.666666 394.666667 97.472 0 186.666667-35.328 255.530667-93.866667l163.584 163.584 45.269333-45.248-163.605333-163.605333A393.109333 393.109333 0 0 0 864 490.837333c0-217.962667-176.704-394.666667-394.666667-394.666666z m-330.666666 394.666666c0-182.613333 148.053333-330.666667 330.666666-330.666666 182.613333 0 330.666667 148.053333 330.666667 330.666666 0 182.613333-148.053333 330.666667-330.666667 330.666667-182.613333 0-330.666667-148.053333-330.666666-330.666667z" fill="#262626" p-id="3899"></path></svg>