<svg width="16" height="16" viewBox="0 0 16 16" fill="none" xmlns="http://www.w3.org/2000/svg">
<g id="1&#239;&#189;&#156;general/properly" clip-path="url(#clip0_972_15194)">
<path id="Union" d="M8.00008 0.666626C5.97524 0.666626 4.14099 1.48817 2.81463 2.8145C1.4883 4.14086 0.666748 5.97511 0.666748 7.99996C0.666748 10.0248 1.48829 11.8591 2.81463 13.1854C4.14098 14.5117 5.97523 15.3333 8.00008 15.3333C10.0249 15.3333 11.8592 14.5117 13.1855 13.1854C14.5119 11.8591 15.3334 10.0248 15.3334 7.99996C15.3334 5.97511 14.5119 4.14087 13.1855 2.81451C11.8592 1.48817 10.0249 0.666626 8.00008 0.666626Z" fill="#165DFF"/>
<path id="Vector (Stroke)" fill-rule="evenodd" clip-rule="evenodd" d="M12.2758 5.97704L7.37163 11.1265C7.2458 11.2586 7.07132 11.3334 6.88887 11.3334C6.70642 11.3334 6.53194 11.2586 6.40611 11.1265L3.72412 8.31037L4.68964 7.39083L6.88887 9.70002L11.3103 5.0575L12.2758 5.97704Z" fill="white"/>
</g>
<defs>
<clipPath id="clip0_972_15194">
<rect width="16" height="16" fill="white"/>
</clipPath>
</defs>
</svg>
