<?xml version="1.0" standalone="no"?><!DOCTYPE svg PUBLIC "-//W3C//DTD SVG 1.1//EN" "http://www.w3.org/Graphics/SVG/1.1/DTD/svg11.dtd"><svg class="icon" width="32px" height="32.00px" viewBox="0 0 1024 1024" version="1.1" xmlns="http://www.w3.org/2000/svg"><path d="M512 512m-512 0a512 512 0 1 0 1024 0 512 512 0 1 0-1024 0Z" fill="#EEF4FF" /><path d="M367.589744 472.615385c16.672821 0 37.021538 4.017231 57.107692 9.557333 20.585026 5.645128 42.692923 13.390769 63.593026 21.924103 20.84759 8.507077 40.96 18.011897 57.422769 27.306666 8.218256 4.621128 15.858872 9.373538 22.317948 14.125949 6.170256 4.489846 12.708103 9.977436 17.48677 16.357743 10.397538 13.863385 10.738872 29.03959 7.325538 41.406359l48.416821-9.084717 46.893948-8.402052 9.898667-1.654154c21.162667-3.518359 40.96-6.51159 50.254769-6.511589 10.660103 0 22.528 2.651897 32.059077 11.027692 9.977436 8.717128 13.889641 20.611282 13.889641 31.638974 0 20.059897-12.235487 39.515897-27.385436 54.665846l-6.091487 5.933949a433.755897 433.755897 0 0 1-9.189743 8.428308l-8.507077 7.430564c-1.522872 1.312821-3.072 2.625641-4.673641 3.938462l-9.714872 7.903179-14.362257 11.106462-7.273025 5.330051-11.447795 8.008205c-3.885949 2.625641-7.876923 5.251282-11.972923 7.876923C646.354051 764.639179 598.436103 787.692308 551.384615 787.692308c-40.434872 0-74.38441-9.399795-103.003897-18.720821l-30.667487-10.187487c-19.429744-6.301538-34.894769-10.476308-50.123487-10.476308H236.307692l-3.045743-0.183795A26.25641 26.25641 0 0 1 236.307692 695.794872h131.282052l6.275282 0.157538 4.883692 0.315077 3.544615 0.341334 5.592616 0.682666 3.045743 0.472616 9.242257 1.706666 6.826666 1.522872 10.528821 2.78318 10.108718 2.99323 12.65559 4.096 17.644307 5.960205c26.125128 8.717128 52.617846 16.620308 83.127795 18.116923L551.384615 735.179487c31.717744 0 69.106872-16.331487 104.054154-38.570666 5.513846-3.492103 10.843897-7.089231 15.963898-10.660103l7.798154-5.566359 8.454564-6.354051 9.478564-7.404308c5.986462-4.778667 11.421538-9.373538 16.226461-13.574564l6.485334-5.77641 5.461333-5.12c1.654154-1.575385 3.150769-3.019487 4.437333-4.306052 2.231795-2.231795 4.096-4.358564 5.671385-6.327795l-12.550564 1.837949-16.200205 2.599385-30.457436 5.251282-33.240616 6.091487-83.810461 16.01641-28.882051 5.723898-1.680411 0.262564-3.150769 0.236308-2.100513-0.052513-3.255795-0.446359a26.387692 26.387692 0 0 1-3.177025-0.813949l-78.848-26.282667a26.25641 26.25641 0 0 1 7.719384-51.173743l2.940718 0.105025c1.995487 0.183795 3.964718 0.577641 5.933949 1.234052l65.719795 21.897846 4.174769-3.492103c2.861949-2.520615 5.77641-5.251282 8.507077-8.139487 4.279795-4.594872 6.957949-8.402051 8.323282-11.027692l-3.465846-2.78318-0.866462-0.65641a176.364308 176.364308 0 0 0-17.119179-10.765128 470.724923 470.724923 0 0 0-51.488821-24.418462 527.228718 527.228718 0 0 0-57.659077-19.928615C392.139487 527.675077 377.173333 525.128205 367.589744 525.128205c-19.954872 0-41.642667 7.614359-62.464 19.508513a248.018051 248.018051 0 0 0-50.25477 38.439385 26.25641 26.25641 0 0 1-37.126564-37.126565 300.320821 300.320821 0 0 1 61.334975-46.893948C304.206769 484.693333 335.031795 472.615385 367.589744 472.615385z m367.589743-210.051282a52.512821 52.512821 0 0 1 52.512821 52.51282v210.051282a26.25641 26.25641 0 1 1-52.512821 0v-210.051282h-78.769231v52.512821a26.25641 26.25641 0 0 1-23.18441 26.072615L630.153846 393.846154h-105.025641a26.25641 26.25641 0 0 1-26.25641-26.25641v-52.512821h-78.769231v105.025641a26.25641 26.25641 0 1 1-52.51282 0v-105.025641a52.512821 52.512821 0 0 1 52.51282-52.51282h315.076923z m-131.282051 52.51282h-52.512821v26.25641h52.512821v-26.25641z" fill="#2B6CFF" /></svg>