<?xml version="1.0" standalone="no"?><!DOCTYPE svg PUBLIC "-//W3C//DTD SVG 1.1//EN" "http://www.w3.org/Graphics/SVG/1.1/DTD/svg11.dtd"><svg t="1736817875198" class="icon" viewBox="0 0 1024 1024" version="1.1" xmlns="http://www.w3.org/2000/svg" p-id="5639" xmlns:xlink="http://www.w3.org/1999/xlink" width="16" height="16"><path d="M857.109333 337.194667a2.816 2.816 0 0 1 0.064 0.554666c4.373333 13.802667 6.826667 29.013333 6.826667 44.373334 0 52.821333-27.84 101.290667-72.725333 126.634666-18.965333 10.709333-41.344 16.213333-66.709334 16.341334a136.832 136.832 0 0 1-106.837333-51.136c-26.048 32.128-64.256 50.986667-105.450667 51.285333-41.6-0.277333-79.829333-19.029333-106.026666-51.136C379.946667 506.368 341.333333 525.226667 299.733333 525.376h-0.149333c-24.810667 0-46.933333-5.205333-65.621333-15.637333C188.373333 484.693333 160 435.925333 160 382.549333c0-15.210667 2.325333-30.293333 6.954667-45.077333 0.213333-1.066667 0.490667-2.069333 0.746666-2.922667l0.213334-0.746666 64-156.074667C241.706667 147.306667 269.013333 128 304.064 128H721.706667c35.733333 0 64.256 19.712 74.496 51.285333l59.605333 152.96c0.554667 1.408 0.96 2.837333 1.237333 4.373334 0 0.213333 0.021333 0.384 0.064 0.576z" fill="#1677FF" p-id="5640"></path><path d="M785.962667 546.794667c14.058667 0 25.386667 11.690667 25.386666 26.197333l0.042667 115.008h-103.509333l1.6-2.005333a48 48 0 0 0-74.965334-59.968l-64 80a48 48 0 0 0 0 59.946666l64 80a48 48 0 1 0 74.965334-59.946666l-1.621334-2.026667h103.594667v44.522667c0 36.906667-29.184 67.050667-64.917333 67.2L268.885333 896c-35.882667 0-65.088-30.144-65.088-67.050667l-0.128-252.992c0-14.378667 11.306667-26.197333 25.386667-26.197333 1.898667 0 5.568 0.704 5.568 0.704l1.493333 0.554667 1.514667 0.576 0.874667 0.298666a6.826667 6.826667 0 0 1 1.045333 0.405334c22.101333 8.448 35.882667 13.226667 60.16 13.226666h0.128c39.850667 0 77.226667-12.522667 106.56-38.314666 29.056 25.642667 66.304 35.925333 106.154667 36.202666a161.152 161.152 0 0 0 105.173333-40.426666c29.333333 25.792 59.904 33.962667 99.882667 36.202666 18.133333 1.002667 42.154667-3.093333 60.992-10.837333 2.453333-0.853333 4.778667-1.557333 7.36-1.557333z" fill="#1677FF" p-id="5641"></path><path d="M686.997333 637.269333c10.346667 8.277333 12.032 23.381333 3.733334 33.706667l-32.789334 41.024H832a24 24 0 0 1 0 48h-174.08l32.832 41.002667a24 24 0 1 1-37.482667 29.994666l-64-80a24 24 0 0 1 0-29.994666l64-80a24 24 0 0 1 33.706667-3.733334z" fill="#1677FF" p-id="5642"></path></svg>