<svg width="25" height="24" viewBox="0 0 25 24" fill="none" xmlns="http://www.w3.org/2000/svg">
<g id="3. function/shelve">
<g id="Union">
<path d="M11.6292 16.5644L7.62917 13.0644L8.61693 11.9356L11.373 14.3472V7.5H12.873V14.3472L15.6292 11.9356L16.6169 13.0644L12.6169 16.5644C12.3342 16.8119 11.9119 16.8119 11.6292 16.5644Z" fill="#595959"/>
<path fill-rule="evenodd" clip-rule="evenodd" d="M2.37305 4.5C2.37305 3.25736 3.38041 2.25 4.62305 2.25H19.623C20.8657 2.25 21.873 3.25736 21.873 4.5V19.5C21.873 20.7426 20.8657 21.75 19.623 21.75H4.62305C3.38041 21.75 2.37305 20.7426 2.37305 19.5V4.5ZM4.62305 3.75C4.20883 3.75 3.87305 4.08579 3.87305 4.5V19.5C3.87305 19.9142 4.20883 20.25 4.62305 20.25H19.623C20.0373 20.25 20.373 19.9142 20.373 19.5V4.5C20.373 4.08579 20.0373 3.75 19.623 3.75H4.62305Z" fill="#595959"/>
</g>
</g>
</svg>
