<svg width="80" height="80" viewBox="0 0 80 80" fill="none" xmlns="http://www.w3.org/2000/svg">
<g id="&#228;&#184;&#128;&#232;&#136;&#172;">
<mask id="mask0_138_2233" style="mask-type:alpha" maskUnits="userSpaceOnUse" x="0" y="0" width="80" height="80">
<rect id="Rectangle 27" width="80" height="80" fill="#D9D9D9"/>
</mask>
<g mask="url(#mask0_138_2233)">
<g id="Vector" filter="url(#filter0_i_138_2233)">
<path d="M40.374 78.8258C29.496 78.8258 19.3713 75.0596 11.8653 68.2209C4.21388 61.25 0 51.6387 0 41.1575L0 11.7375C0 5.95454 4.71563 1.25 10.5118 1.25L40 1.25C62.0561 1.25 80 19.1524 80 41.1573C80 51.6867 75.9152 61.3014 68.4984 68.2306C61.185 75.063 51.197 78.8258 40.374 78.8258Z" fill="url(#paint0_radial_138_2233)"/>
</g>
<g id="Vector_2" filter="url(#filter1_d_138_2233)">
<path d="M28.1251 39.4445C30.6103 39.4445 32.6251 36.0866 32.6251 31.9445C32.6251 27.8023 30.6103 24.4445 28.1251 24.4445C25.6398 24.4445 23.6251 27.8023 23.6251 31.9445C23.6251 36.0866 25.6398 39.4445 28.1251 39.4445Z" fill="#683400"/>
<path d="M51.8751 39.4445C54.3604 39.4445 56.3751 36.0866 56.3751 31.9445C56.3751 27.8023 54.3604 24.4445 51.8751 24.4445C49.3898 24.4445 47.3751 27.8023 47.3751 31.9445C47.3751 36.0866 49.3898 39.4445 51.8751 39.4445Z" fill="#683400"/>
<path d="M23.9477 50.6482C30.6368 56.6973 38.499 56.3949 40.0086 56.3949L40.0015 59.7222C23.9477 59.7222 19.9342 46.1111 23.9477 50.6482Z" fill="#683400"/>
<path d="M56.0526 50.6482C49.3635 56.6973 41.5013 56.3949 39.9916 56.3949L39.9988 59.7222C56.0525 59.7222 60.066 46.1111 56.0526 50.6482Z" fill="#683400"/>
</g>
</g>
</g>
<defs>
<filter id="filter0_i_138_2233" x="0" y="1.25" width="80" height="77.5757" filterUnits="userSpaceOnUse" color-interpolation-filters="sRGB">
<feFlood flood-opacity="0" result="BackgroundImageFix"/>
<feBlend mode="normal" in="SourceGraphic" in2="BackgroundImageFix" result="shape"/>
<feColorMatrix in="SourceAlpha" type="matrix" values="0 0 0 0 0 0 0 0 0 0 0 0 0 0 0 0 0 0 127 0" result="hardAlpha"/>
<feOffset/>
<feGaussianBlur stdDeviation="6"/>
<feComposite in2="hardAlpha" operator="arithmetic" k2="-1" k3="1"/>
<feColorMatrix type="matrix" values="0 0 0 0 0.889482 0 0 0 0 0.367508 0 0 0 0 0.0126852 0 0 0 0.5 0"/>
<feBlend mode="normal" in2="shape" result="effect1_innerShadow_138_2233"/>
</filter>
<filter id="filter1_d_138_2233" x="22.0001" y="24.4445" width="36" height="36.2778" filterUnits="userSpaceOnUse" color-interpolation-filters="sRGB">
<feFlood flood-opacity="0" result="BackgroundImageFix"/>
<feColorMatrix in="SourceAlpha" type="matrix" values="0 0 0 0 0 0 0 0 0 0 0 0 0 0 0 0 0 0 127 0" result="hardAlpha"/>
<feOffset dy="0.5"/>
<feGaussianBlur stdDeviation="0.25"/>
<feComposite in2="hardAlpha" operator="out"/>
<feColorMatrix type="matrix" values="0 0 0 0 1 0 0 0 0 0.845226 0 0 0 0 0.296484 0 0 0 1 0"/>
<feBlend mode="normal" in2="BackgroundImageFix" result="effect1_dropShadow_138_2233"/>
<feBlend mode="normal" in="SourceGraphic" in2="effect1_dropShadow_138_2233" result="shape"/>
</filter>
<radialGradient id="paint0_radial_138_2233" cx="0" cy="0" r="1" gradientUnits="userSpaceOnUse" gradientTransform="translate(22 13.5) rotate(64.359) scale(69.3271 71.4937)">
<stop stop-color="#FAD961"/>
<stop offset="0.669371" stop-color="#F9BA45"/>
<stop offset="1" stop-color="#FFA24A"/>
</radialGradient>
</defs>
</svg>
