<?xml version="1.0" standalone="no"?><!DOCTYPE svg PUBLIC "-//W3C//DTD SVG 1.1//EN" "http://www.w3.org/Graphics/SVG/1.1/DTD/svg11.dtd"><svg class="icon" width="32px" height="32.00px" viewBox="0 0 1024 1024" version="1.1" xmlns="http://www.w3.org/2000/svg"><path fill="#8a8a8a" d="M406.805333 102.122667c42.666667-87.850667 167.701333-88.170667 210.816-0.533334l85.888 174.570667a10.666667 10.666667 0 0 0 8.021334 5.845333l193.28 28.437334c95.786667 14.08 134.250667 131.52 65.408 199.552l-142.016 140.288a10.666667 10.666667 0 0 0-3.008 9.408l32.981333 190.677333c16.682667 96.405333-84.992 169.664-171.178667 123.349333l-169.984-91.413333a10.666667 10.666667 0 0 0-10.090666 0l-169.728 91.306667c-86.229333 46.357333-187.989333-27.050667-171.178667-123.52l33.194667-190.378667a10.666667 10.666667 0 0 0-3.008-9.429333l-142.101334-140.16c-68.992-68.010667-30.464-185.6 65.408-199.616l194.730667-28.501334a10.666667 10.666667 0 0 0 8.042667-5.888l84.522666-173.994666z"  /></svg>