<?xml version="1.0" standalone="no"?><!DOCTYPE svg PUBLIC "-//W3C//DTD SVG 1.1//EN" "http://www.w3.org/Graphics/SVG/1.1/DTD/svg11.dtd"><svg t="1734667037681" class="icon" viewBox="0 0 1024 1024" version="1.1" xmlns="http://www.w3.org/2000/svg" p-id="5300" xmlns:xlink="http://www.w3.org/1999/xlink" width="32" height="32"><path d="M479.936 714.666667V422.528l-117.589333 102.890667-42.133334-48.170667 170.666667-149.333333a32 32 0 0 1 42.133333 0l170.666667 149.333333-42.133333 48.170667-117.610667-102.890667V714.666667h-64z" p-id="5301"></path><path d="M191.936 96a96 96 0 0 0-96 96v640a96 96 0 0 0 96 96h640a96 96 0 0 0 96-96V192a96 96 0 0 0-96-96h-640zM159.936 192a32 32 0 0 1 32-32h640a32 32 0 0 1 32 32v640a32 32 0 0 1-32 32h-640a32 32 0 0 1-32-32V192z" p-id="5302"></path></svg>