<?xml version="1.0" standalone="no"?><!DOCTYPE svg PUBLIC "-//W3C//DTD SVG 1.1//EN" "http://www.w3.org/Graphics/SVG/1.1/DTD/svg11.dtd"><svg t="1736817834014" class="icon" viewBox="0 0 1024 1024" version="1.1" xmlns="http://www.w3.org/2000/svg" p-id="5070" xmlns:xlink="http://www.w3.org/1999/xlink" width="16" height="16"><path d="M108.8 512C108.8 289.322667 289.322667 108.8 512 108.8c222.677333 0 403.2 180.522667 403.2 403.2 0 222.677333-180.522667 403.2-403.2 403.2-222.677333 0-403.2-180.522667-403.2-403.2z m316.8-151.189333c-19.882667 0-35.989333 16.106667-35.989333 35.989333v230.4a35.989333 35.989333 0 1 0 72 0V396.8c0-19.882667-16.128-36.010667-36.010667-36.010667z m172.8 0c-19.882667 0-35.989333 16.106667-35.989333 35.989333v230.4a35.989333 35.989333 0 1 0 72 0V396.8c0-19.882667-16.128-36.010667-36.010667-36.010667z" fill="#FAAD14" p-id="5071"></path></svg>