<?xml version="1.0" standalone="no"?><!DOCTYPE svg PUBLIC "-//W3C//DTD SVG 1.1//EN" "http://www.w3.org/Graphics/SVG/1.1/DTD/svg11.dtd"><svg t="1726215405741" class="icon" viewBox="0 0 1024 1024" version="1.1" xmlns="http://www.w3.org/2000/svg" p-id="3661" width="32" height="32" xmlns:xlink="http://www.w3.org/1999/xlink"><path d="M512 512m-512 0a512 512 0 1 0 1024 0 512 512 0 1 0-1024 0Z" fill="#FBF3D0" p-id="3662"></path><path d="M240 339.904C240 284.736 285.664 240 342.016 240h339.968c56.32 0 102.016 44.736 102.016 99.904v344.192c0 55.168-45.664 99.904-102.016 99.904H342.016c-56.32 0-101.984-44.736-101.984-99.904V339.904z" fill="#FAAD14" p-id="3663"></path><path d="M627.136 354.048a56.064 56.064 0 0 1 15.488 109.888h20.224a17.024 17.024 0 0 1 16.96 18.144l-0.512 3.104-36.928 144.256a16.896 16.896 0 0 1-4.448 7.84 16.96 16.96 0 0 1-13.216 6.688h-95.616v49.504a16.96 16.96 0 0 1-16.96 16.928h-87.04a16.96 16.96 0 0 1-14.176-7.616 16.96 16.96 0 0 1-3.456-4.928l-1.056-2.944-52.448-204.928a17.056 17.056 0 0 1 16.448-21.216h104.928a17.024 17.024 0 0 1 16.928 18.144l-0.512 3.072-47.712 186.464h51.104V627.2a16.96 16.96 0 0 1 16.704-16.96l92.672-0.16-31.936-124.864a17.056 17.056 0 0 1 16.448-21.248h22.592a56.16 56.16 0 0 1-40.512-53.856c0-30.88 25.12-56.032 56.032-56.032z m-173.664 148.672h-61.216l30.592 119.552 30.624-119.552z m187.52-4.736h-30.144l15.072 58.88 15.072-58.88zM424.544 320a72.64 72.64 0 0 1 72.512 72.544 72.576 72.576 0 0 1-72.512 72.48A72.64 72.64 0 0 1 352 392.48 72.576 72.576 0 0 1 424.544 320z m202.592 64.736a25.344 25.344 0 1 0 25.28 25.28 25.344 25.344 0 0 0-25.28-25.28z m-202.592-30.784a38.592 38.592 0 1 0 0.032 77.12 38.592 38.592 0 0 0-0.032-77.12z" fill="#FFFFFF" p-id="3664"></path></svg>