<?xml version="1.0" standalone="no"?><!DOCTYPE svg PUBLIC "-//W3C//DTD SVG 1.1//EN" "http://www.w3.org/Graphics/SVG/1.1/DTD/svg11.dtd"><svg t="1732847467900" class="icon" viewBox="0 0 1024 1024" version="1.1" xmlns="http://www.w3.org/2000/svg" p-id="4224" xmlns:xlink="http://www.w3.org/1999/xlink" width="16" height="16"><path d="M512 512m-512 0a512 512 0 1 0 1024 0 512 512 0 1 0-1024 0Z" fill="#EEF4FF" p-id="4225"></path><path d="M288.820513 262.564103a52.512821 52.512821 0 0 1 52.51282-52.512821h262.564103a26.25641 26.25641 0 0 1 26.25641 26.25641v105.025641h105.025641a26.25641 26.25641 0 0 1 26.25641 26.256411v367.589743a52.512821 52.512821 0 0 1-52.51282 52.512821H341.333333a52.512821 52.512821 0 0 1-52.51282-52.512821V262.564103z m288.820513 0h-236.307693v472.615384h367.589744V393.846154h-105.025641a26.25641 26.25641 0 0 1-26.25641-26.25641v-105.025641z" fill="#2B6CFF" p-id="4226"></path><path d="M585.334154 217.74441a26.25641 26.25641 0 0 1 37.126564 0l131.282051 131.282052a26.25641 26.25641 0 0 1-37.126564 37.126564l-131.282051-131.282052a26.25641 26.25641 0 0 1 0-37.126564zM525.128205 498.871795a39.384615 39.384615 0 1 0 0 78.769231 39.384615 39.384615 0 0 0 0-78.769231z m-91.897436 39.384615a91.897436 91.897436 0 1 1 183.794872 0 91.897436 91.897436 0 0 1-183.794872 0z" fill="#2B6CFF" p-id="4227"></path><path d="M525.128205 406.974359a26.25641 26.25641 0 0 1 26.25641 26.25641V472.615385a26.25641 26.25641 0 1 1-52.51282 0v-39.384616a26.25641 26.25641 0 0 1 26.25641-26.25641zM525.128205 577.641026a26.25641 26.25641 0 0 1 26.25641 26.25641v39.384615a26.25641 26.25641 0 1 1-52.51282 0V603.897436a26.25641 26.25641 0 0 1 26.25641-26.25641z" fill="#2B6CFF" p-id="4228"></path><path d="M620.202667 440.923897a26.25641 26.25641 0 0 1 0 37.126565l-27.831795 27.831794a26.25641 26.25641 0 0 1-37.152821-37.100307l27.831795-27.858052a26.25641 26.25641 0 0 1 37.152821 0zM488.920615 572.205949a26.25641 26.25641 0 0 1 0 37.126564l-27.831794 27.831795a26.25641 26.25641 0 0 1-37.152821-37.100308l27.831795-27.858051a26.25641 26.25641 0 0 1 37.15282 0zM427.795692 440.923897a26.25641 26.25641 0 0 1 37.126564 0l27.831795 27.831795a26.25641 26.25641 0 0 1-37.100307 37.152821l-27.858052-27.831795a26.25641 26.25641 0 0 1 0-37.152821zM559.077744 572.205949a26.25641 26.25641 0 0 1 37.126564 0l27.831795 27.831795a26.25641 26.25641 0 0 1-37.100308 37.15282l-27.858051-27.831795a26.25641 26.25641 0 0 1 0-37.15282z" fill="#2B6CFF" p-id="4229"></path><path d="M393.846154 538.25641a26.25641 26.25641 0 0 1 26.25641-26.25641h39.384615a26.25641 26.25641 0 1 1 0 52.512821H420.102564a26.25641 26.25641 0 0 1-26.25641-26.256411zM564.512821 538.25641a26.25641 26.25641 0 0 1 26.25641-26.25641H630.153846a26.25641 26.25641 0 1 1 0 52.512821h-39.384615a26.25641 26.25641 0 0 1-26.25641-26.256411z" fill="#2B6CFF" p-id="4230"></path></svg>