<?xml version="1.0" standalone="no"?><!DOCTYPE svg PUBLIC "-//W3C//DTD SVG 1.1//EN" "http://www.w3.org/Graphics/SVG/1.1/DTD/svg11.dtd"><svg class="icon" width="32px" height="32.00px" viewBox="0 0 1024 1024" version="1.1" xmlns="http://www.w3.org/2000/svg"><path d="M512 512m-512 0a512 512 0 1 0 1024 0 512 512 0 1 0-1024 0Z" fill="#EEF4FF" /><path d="M446.358974 249.435897a118.153846 118.153846 0 0 1 5.566359 236.176411L446.358974 485.74359a118.153846 118.153846 0 0 1 0-236.307693z m0 52.512821a65.641026 65.641026 0 1 0 0 131.282051l4.306052-0.131282A65.641026 65.641026 0 0 0 446.358974 301.948718z m178.018462-39.384615l2.888205 0.105025a26.098872 26.098872 0 0 1 11.290256 3.675898 118.153846 118.153846 0 0 1 0 202.515692 26.125128 26.125128 0 0 1-11.290256 3.675897l-2.888205 0.07877a26.25641 26.25641 0 0 1-15.465026-46.998975l2.546872-1.732923a65.641026 65.641026 0 0 0 0-112.561231A26.25641 26.25641 0 0 1 624.377436 262.564103zM249.435897 774.564103a26.25641 26.25641 0 0 1-26.25641-26.256411v-35.052307l0.262564-24.365949c0.210051-10.082462 0.577641-19.193436 1.260308-27.464205 1.575385-19.114667 4.857436-35.945026 12.786872-51.488821a131.203282 131.203282 0 0 1 57.370256-57.370256c15.543795-7.929436 32.347897-11.237744 51.488821-12.786872a687.655385 687.655385 0 0 1 51.830154-1.496615h96.361025l24.339692 0.236307c10.108718 0.210051 19.219692 0.577641 27.490462 1.260308 19.140923 1.549128 35.945026 4.857436 51.462564 12.786872a131.203282 131.203282 0 0 1 57.396513 57.370256c7.929436 15.543795 11.237744 32.374154 12.786872 51.488821 1.181538 14.441026 1.444103 31.560205 1.496615 51.830154L669.538462 748.307692a26.25641 26.25641 0 0 1-26.256411 26.256411h-393.846154z m249.173334-183.768616h-96.544821c-21.845333 0.026256-38.176821 0.262564-51.436307 1.312821-15.885128 1.312821-25.022359 3.72841-31.927795 7.246769a78.874256 78.874256 0 0 0-34.422154 34.422154c-3.518359 6.905436-5.933949 16.042667-7.246769 31.927795-1.155282 14.230974-1.312821 32.006564-1.312821 56.346256H617.025641l-0.105026-22.265436a491.204923 491.204923 0 0 0-1.234051-34.08082c-1.312821-15.885128-3.72841-25.022359-7.246769-31.927795a78.900513 78.900513 0 0 0-34.422154-34.422154c-6.905436-3.518359-16.042667-5.933949-31.927795-7.246769l-10.555077-0.656411a821.248 821.248 0 0 0-32.951795-0.65641z m219.030974-41.091282l2.888205 0.210051a26.177641 26.177641 0 0 1 8.612103 2.651898 131.203282 131.203282 0 0 1 57.370256 57.370256c7.929436 15.543795 11.237744 32.374154 12.786872 51.488821 1.181538 14.441026 1.444103 31.560205 1.496615 51.830154L800.820513 748.307692a26.25641 26.25641 0 0 1-23.18441 26.072616l-3.072 0.183795a26.25641 26.25641 0 0 1-26.256411-26.256411l-0.078769-44.950974a527.675077 527.675077 0 0 0-1.260308-37.651692c-1.312821-15.885128-3.72841-25.022359-7.246769-31.927795a78.795487 78.795487 0 0 0-34.422154-34.422154 26.25641 26.25641 0 0 1 12.340513-49.650872z" fill="#2B6CFF" /></svg>