<?xml version="1.0" standalone="no"?><!DOCTYPE svg PUBLIC "-//W3C//DTD SVG 1.1//EN" "http://www.w3.org/Graphics/SVG/1.1/DTD/svg11.dtd"><svg t="1726822816018" class="icon" viewBox="0 0 1024 1024" version="1.1" xmlns="http://www.w3.org/2000/svg" p-id="4026" xmlns:xlink="http://www.w3.org/1999/xlink" width="200" height="200"><path d="M661.333333 234.666667a149.333333 149.333333 0 1 1-298.666666 0 149.333333 149.333333 0 0 1 298.666666 0zM480 533.333333c-210.816 0-383.018667 165.290667-394.112 373.333334h788.202667C862.997333 698.624 690.816 533.333333 480 533.333333z" fill="#EEF4FF" p-id="4027"></path><path d="M512 53.333333a181.333333 181.333333 0 1 0 0 362.666667 181.333333 181.333333 0 0 0 0-362.666667zM394.666667 234.666667a117.333333 117.333333 0 1 1 234.666666 0 117.333333 117.333333 0 0 1-234.666666 0z" fill="#2B6CFF" p-id="4028"></path><path d="M117.333333 874.666667c0-167.402667 153.941333-309.333333 352-309.333334h32v-64H469.333333C243.221333 501.333333 53.333333 665.045333 53.333333 874.666667v32h64V874.666667zM569.706667 741.333333H966.4v64H723.072l68.842667 69.568-45.482667 45.013334-176.725333-178.581334zM571.733333 688h396.693334l-176.725334-178.581333-45.504 45.013333 68.842667 69.568H571.733333v64z" fill="#2B6CFF" p-id="4029"></path></svg>