<?xml version="1.0" standalone="no"?><!DOCTYPE svg PUBLIC "-//W3C//DTD SVG 1.1//EN" "http://www.w3.org/Graphics/SVG/1.1/DTD/svg11.dtd"><svg t="1726822732031" class="icon" viewBox="0 0 1024 1024" version="1.1" xmlns="http://www.w3.org/2000/svg" p-id="3878" xmlns:xlink="http://www.w3.org/1999/xlink" width="200" height="200"><path d="M192 170.837333a21.333333 21.333333 0 0 0-21.333333 21.333334v640a21.333333 21.333333 0 0 0 21.333333 21.333333h640a21.333333 21.333333 0 0 0 21.333333-21.333333v-203.221334h85.333334v203.221334a106.666667 106.666667 0 0 1-106.666667 106.666666H192a106.666667 106.666667 0 0 1-106.666667-106.666666v-640a106.666667 106.666667 0 0 1 106.666667-106.666667h192v85.333333H192z" fill="#262626" p-id="3879"></path><path d="M653.418667 431.104h195.626666v85.333333h-341.333333v-341.333333h85.333333v195.669333L865.856 98.005333l60.330667 60.352L653.44 431.104z" fill="#262626" p-id="3880"></path></svg>