<?xml version="1.0" standalone="no"?><!DOCTYPE svg PUBLIC "-//W3C//DTD SVG 1.1//EN" "http://www.w3.org/Graphics/SVG/1.1/DTD/svg11.dtd"><svg class="icon" width="32px" height="32.00px" viewBox="0 0 1024 1024" version="1.1" xmlns="http://www.w3.org/2000/svg"><path fill="#8a8a8a" d="M512 53.333333a202.666667 202.666667 0 1 0 0 405.333334 202.666667 202.666667 0 0 0 0-405.333334zM373.333333 256a138.666667 138.666667 0 1 1 277.333334 0 138.666667 138.666667 0 0 1-277.333334 0z"  /><path fill="#8a8a8a" d="M512 522.666667C282.24 522.666667 96 708.906667 96 938.666667a32 32 0 0 0 64 0c0-194.410667 157.589333-352 352-352S864 744.256 864 938.666667a32 32 0 0 0 64 0c0-229.76-186.24-416-416-416z"  /></svg>