<?xml version="1.0" standalone="no"?><!DOCTYPE svg PUBLIC "-//W3C//DTD SVG 1.1//EN" "http://www.w3.org/Graphics/SVG/1.1/DTD/svg11.dtd"><svg t="1728633848069" class="icon" viewBox="0 0 1024 1024" version="1.1" xmlns="http://www.w3.org/2000/svg" p-id="4092" xmlns:xlink="http://www.w3.org/1999/xlink" width="200" height="200"><path d="M192 170.837333a21.333333 21.333333 0 0 0-21.333333 21.333334v640a21.333333 21.333333 0 0 0 21.333333 21.333333h640a21.333333 21.333333 0 0 0 21.333333-21.333333v-203.221334h85.333334v203.221334a106.666667 106.666667 0 0 1-106.666667 106.666666H192a106.666667 106.666667 0 0 1-106.666667-106.666666v-640a106.666667 106.666667 0 0 1 106.666667-106.666667h192v85.333333H192z" fill="#ffffff" p-id="4093"></path><path d="M792.981333 170.837333H597.333333v-85.333333h341.333334v341.333333h-85.333334v-195.648L580.565333 503.936l-60.330666-60.330667L792.96 170.837333z" fill="#ffffff" p-id="4094"></path></svg>