<?xml version="1.0" standalone="no"?><!DOCTYPE svg PUBLIC "-//W3C//DTD SVG 1.1//EN" "http://www.w3.org/Graphics/SVG/1.1/DTD/svg11.dtd"><svg t="1730278524127" class="icon" viewBox="0 0 1024 1024" version="1.1" xmlns="http://www.w3.org/2000/svg" p-id="4039" xmlns:xlink="http://www.w3.org/1999/xlink" width="32" height="32"><path d="M613.482667 85.333333H213.333333a42.666667 42.666667 0 0 0-42.666666 42.666667v768a42.666667 42.666667 0 0 0 42.666666 42.666667h597.333334a42.666667 42.666667 0 0 0 42.666666-42.666667V325.184a64 64 0 0 0-18.752-45.269333L658.773333 104.106667A64 64 0 0 0 613.482667 85.333333z" fill="#EEF4FF" p-id="4040"></path><path d="M613.482667 64a85.333333 85.333333 0 0 1 60.352 25.002667l175.829333 175.829333A85.333333 85.333333 0 0 1 874.666667 325.184V405.333333h21.333333a42.666667 42.666667 0 0 1 42.666667 42.666667v298.666667a42.666667 42.666667 0 0 1-42.666667 42.666666h-21.333333v106.666667a64 64 0 0 1-64 64H213.333333a64 64 0 0 1-64-64v-106.666667H128a42.666667 42.666667 0 0 1-42.666667-42.666666V448a42.666667 42.666667 0 0 1 42.666667-42.666667h21.333333V128a64 64 0 0 1 64-64h400.149334zM832 789.333333H192v106.666667a21.333333 21.333333 0 0 0 21.333333 21.333333h597.333334a21.333333 21.333333 0 0 0 21.333333-21.333333v-106.666667zM613.482667 106.666667H213.333333a21.333333 21.333333 0 0 0-21.333333 21.333333v277.333333h640v-80.149333a42.666667 42.666667 0 0 0-12.501333-30.186667l-175.829334-175.829333A42.666667 42.666667 0 0 0 613.482667 106.666667zM458.666667 224v64h-149.333334v-64h149.333334z" fill="#92BBFF" p-id="4041"></path><path d="M484.906667 525.397333a79.573333 79.573333 0 0 1 38.186666 9.173334c11.413333 6.058667 20.48 15.018667 27.2 26.88 6.72 11.818667 10.069333 26.368 10.069334 43.648 0 17.28-3.349333 31.829333-10.069334 43.712a67.626667 67.626667 0 0 1-27.2 26.88 80.128 80.128 0 0 1-38.186666 9.088 79.893333 79.893333 0 0 1-38.336-9.173334 68.266667 68.266667 0 0 1-27.114667-26.965333c-6.677333-11.861333-10.005333-26.368-10.005333-43.541333 0-17.28 3.328-31.829333 10.005333-43.648a67.136 67.136 0 0 1 27.114667-26.88 79.893333 79.893333 0 0 1 38.336-9.173334z m0 36.672c-6.954667 0-12.842667 1.664-17.642667 4.992-4.757333 3.285333-8.362667 8.128-10.837333 14.549334-2.432 6.357333-3.626667 14.186667-3.626667 23.466666 0 9.301333 1.194667 17.152 3.626667 23.573334 2.474667 6.357333 6.08 11.221333 10.837333 14.549333 4.8 3.285333 10.666667 4.906667 17.642667 4.906667 6.976 0 12.821333-1.621333 17.578666-4.906667 4.8-3.328 8.405333-8.192 10.837334-14.549333 2.474667-6.4 3.712-14.272 3.712-23.552 0-9.301333-1.237333-17.130667-3.712-23.488-2.432-6.4-6.037333-11.264-10.837334-14.549334-4.757333-3.328-10.602667-4.992-17.578666-4.992z m161.92-34.56c11.52 0 21.589333 2.112 30.229333 6.293334 8.64 4.202667 15.36 10.24 20.138667 18.112 4.8 7.893333 7.210667 17.322667 7.210666 28.330666 0 11.093333-2.474667 20.48-7.424 28.096-4.586667 7.125333-10.88 12.608-18.944 16.469334L709.546667 682.666667h-45.76l-27.242667-51.2h-14.570667V682.666667h-42.112v-155.157334h66.965334z m-10.005334 33.642667h-14.848v37.568h14.848c4.949333 0 9.173333-0.597333 12.650667-1.813333a16 16 0 0 0 8.106667-5.973334 18.154667 18.154667 0 0 0 2.88-10.688 18.666667 18.666667 0 0 0-2.88-10.837333 16.085333 16.085333 0 0 0-8.106667-6.208 34.773333 34.773333 0 0 0-12.650667-2.048z m144.64-33.642667c15.936 0 29.738667 3.114667 41.344 9.322667 11.669333 6.165333 20.650667 15.061333 26.965334 26.666667 6.378667 11.562667 9.557333 25.429333 9.557333 41.6 0 16.149333-3.157333 30.037333-9.472 41.664a64.981333 64.981333 0 0 1-26.816 26.666666c-11.562667 6.165333-25.237333 9.237333-40.981333 9.237334H722.346667v-155.157334h59.093333z m-2.133333 35.754667h-14.848v83.626667h16.064c7.68 0 14.208-1.216 19.626667-3.690667 5.44-2.474667 9.6-6.741333 12.416-12.8 2.88-6.058667 4.309333-14.506667 4.309333-25.301333 0-10.816-1.472-19.242667-4.394667-25.301334a25.173333 25.173333 0 0 0-12.714666-12.8c-5.546667-2.496-12.373333-3.733333-20.48-3.733333zM180.16 527.509333L225.92 682.666667h40.298667l26.368-86.677334h1.194666L320.170667 682.666667h40.32l45.738666-155.157334H359.253333l-21.226666 95.765334h-1.194667l-25.173333-95.765334h-36.949334l-25.173333 95.466667h-1.194667l-21.226666-95.466667H180.16z" fill="#FFFFFF" p-id="4042"></path></svg>